<svg version="1.2" xmlns="http://www.w3.org/2000/svg" viewBox="0 0 80 86" width="80" height="86"><defs><clipPath clipPathUnits="userSpaceOnUse" id="cp1"><path d="m-130 0h210v86h-210z"/></clipPath><linearGradient id="P" gradientUnits="userSpaceOnUse"/><linearGradient id="g1" x2="1" href="#P" gradientTransform="matrix(2.179,0,0,2.191,-128.967,71.657)"><stop offset=".02" stop-color="#f4ea98"/><stop offset="1" stop-color="#95642a"/></linearGradient><linearGradient id="g2" x2="1" href="#P" gradientTransform="matrix(2.167,0,0,2.124,-126.766,71.514)"><stop offset=".02" stop-color="#f4ea98"/><stop offset="1" stop-color="#95642a"/></linearGradient><linearGradient id="g3" x2="1" href="#P" gradientTransform="matrix(.023,0,0,.023,-126.788,71.584)"><stop offset=".02" stop-color="#f4ea98"/><stop offset="1" stop-color="#95642a"/></linearGradient><linearGradient id="g4" x2="1" href="#P" gradientTransform="matrix(16.203,0,0,7.581,-128.494,76.564)"><stop offset=".02" stop-color="#f4ea98"/><stop offset="1" stop-color="#95642a"/></linearGradient><linearGradient id="g5" x2="1" href="#P" gradientTransform="matrix(2.278,0,0,2.224,-101.323,83.086)"><stop offset=".02" stop-color="#f4ea98"/><stop offset="1" stop-color="#95642a"/></linearGradient><linearGradient id="g6" x2="1" href="#P" gradientTransform="matrix(.023,0,0,.023,-101.347,83.109)"><stop offset=".02" stop-color="#f4ea98"/><stop offset="1" stop-color="#95642a"/></linearGradient><linearGradient id="g7" x2="1" href="#P" gradientTransform="matrix(2.278,0,0,2.267,-103.623,83.12)"><stop offset=".02" stop-color="#f4ea98"/><stop offset="1" stop-color="#95642a"/></linearGradient><linearGradient id="g8" x2="1" href="#P" gradientTransform="matrix(66.065,0,0,11.099,-111.076,74.811)"><stop offset=".02" stop-color="#f4ea98"/><stop offset="1" stop-color="#95642a"/></linearGradient><linearGradient id="g9" x2="1" href="#P" gradientTransform="matrix(4.473,0,0,8.17,-42.461,23.631)"><stop stop-color="#f4ea98"/><stop offset="1" stop-color="#95642a"/></linearGradient><linearGradient id="g10" x2="1" href="#P" gradientTransform="matrix(4.254,0,0,6.264,-37.13,22.592)"><stop stop-color="#f4ea98"/><stop offset="1" stop-color="#95642a"/></linearGradient><linearGradient id="g11" x2="1" href="#P" gradientTransform="matrix(1.418,0,0,1.393,-35.032,21.573)"><stop stop-color="#f4ea98"/><stop offset="1" stop-color="#95642a"/></linearGradient><linearGradient id="g12" x2="1" href="#P" gradientTransform="matrix(1.287,0,0,1.281,-28.989,27.287)"><stop stop-color="#f4ea98"/><stop offset="1" stop-color="#95642a"/></linearGradient><linearGradient id="g13" x2="1" href="#P" gradientTransform="matrix(.015,0,0,.015,-27.703,27.281)"><stop stop-color="#f4ea98"/><stop offset="1" stop-color="#95642a"/></linearGradient><linearGradient id="g14" x2="1" href="#P" gradientTransform="matrix(1.288,0,0,1.257,-27.689,27.269)"><stop stop-color="#f4ea98"/><stop offset="1" stop-color="#95642a"/></linearGradient><linearGradient id="g15" x2="1" href="#P" gradientTransform="matrix(1.261,0,0,1.255,-23.352,21.045)"><stop stop-color="#f4ea98"/><stop offset="1" stop-color="#95642a"/></linearGradient><linearGradient id="g16" x2="1" href="#P" gradientTransform="matrix(1.293,0,0,1.292,-24.04,22.201)"><stop stop-color="#f4ea98"/><stop offset="1" stop-color="#95642a"/></linearGradient><linearGradient id="g17" x2="1" href="#P" gradientTransform="matrix(12.597,0,0,5.744,-33.35,25.603)"><stop stop-color="#f4ea98"/><stop offset="1" stop-color="#95642a"/></linearGradient><linearGradient id="g18" x2="1" href="#P" gradientTransform="matrix(.014,0,0,.014,-22.747,22.206)"><stop stop-color="#f4ea98"/><stop offset="1" stop-color="#95642a"/></linearGradient><linearGradient id="g19" x2="1" href="#P" gradientTransform="matrix(1.219,0,0,1.218,-22.734,22.194)"><stop stop-color="#f4ea98"/><stop offset="1" stop-color="#95642a"/></linearGradient><linearGradient id="g20" x2="1" href="#P" gradientTransform="matrix(1.418,0,0,1.393,-17.965,21.573)"><stop stop-color="#f4ea98"/><stop offset="1" stop-color="#95642a"/></linearGradient><linearGradient id="g21" x2="1" href="#P" gradientTransform="matrix(4.254,0,0,6.267,-20.065,22.592)"><stop stop-color="#f4ea98"/><stop offset="1" stop-color="#95642a"/></linearGradient><linearGradient id="g22" x2="1" href="#P" gradientTransform="matrix(1.293,0,0,1.3,-10.318,21.389)"><stop stop-color="#f4ea98"/><stop offset="1" stop-color="#95642a"/></linearGradient><linearGradient id="g23" x2="1" href="#P" gradientTransform="matrix(1.263,0,0,1.268,-11.586,21.361)"><stop stop-color="#f4ea98"/><stop offset="1" stop-color="#95642a"/></linearGradient><linearGradient id="g24" x2="1" href="#P" gradientTransform="matrix(10.666,0,0,5.288,-16.329,25.372)"><stop stop-color="#f4ea98"/><stop offset="1" stop-color="#95642a"/></linearGradient><linearGradient id="g25" x2="1" href="#P" gradientTransform="matrix(1.418,0,0,1.393,-7.818,21.573)"><stop stop-color="#f4ea98"/><stop offset="1" stop-color="#95642a"/></linearGradient><linearGradient id="g26" x2="1" href="#P" gradientTransform="matrix(.714,0,0,6.103,-4.97,22.689)"><stop stop-color="#f4ea98"/><stop offset="1" stop-color="#95642a"/></linearGradient><linearGradient id="g27" x2="1" href="#P" gradientTransform="matrix(1.831,0,0,1.838,-5.288,26.973)"><stop stop-color="#f4ea98"/><stop offset="1" stop-color="#95642a"/></linearGradient><linearGradient id="g28" x2="1" href="#P" gradientTransform="matrix(75.32,0,0,86.001,4.68,43.001)"><stop stop-color="#95642a"/><stop offset=".5" stop-color="#f4ea98"/><stop offset="1" stop-color="#95642a"/></linearGradient></defs><style>.a{fill:#fff}.b{fill:url(#g1)}.c{fill:url(#g2)}.d{fill:url(#g3)}.e{fill:url(#g4)}.f{fill:url(#g5)}.g{fill:url(#g6)}.h{fill:url(#g7)}.i{fill:url(#g8)}.j{fill:url(#g9)}.k{fill:url(#g10)}.l{fill:url(#g11)}.m{fill:url(#g12)}.n{fill:url(#g13)}.o{fill:url(#g14)}.p{fill:url(#g15)}.q{fill:url(#g16)}.r{fill:url(#g17)}.s{fill:url(#g18)}.t{fill:url(#g19)}.u{fill:url(#g20)}.v{fill:url(#g21)}.w{fill:url(#g22)}.x{fill:url(#g23)}.y{fill:url(#g24)}.z{fill:url(#g25)}.A{fill:url(#g26)}.B{fill:url(#g27)}.C{fill:url(#g28)}</style><g clip-path="url(#cp1)"><path fill-rule="evenodd" class="a" d="m-117.5 65.9h-6.3q-2.1 0-3.8-1.1-0.3-0.2-0.6-0.5-1.8-1.6-1.8-4v-17.8q0-2.4 1.8-4 1.8-1.7 4.5-1.7c1.8 0 3.3 0.6 4.5 1.7q1.7 1.6 1.7 4zm-6.3-1.1h2v-24.7q0-2.3-1.9-2.3c-1.3 0-2 0.8-2 2.3v22.5q0 2.2 1.9 2.2zm-2.7-31.3q-0.9 0-1.5-0.7-0.6-0.6-0.6-1.5 0-0.9 0.6-1.5 0.6-0.6 1.5-0.7 0.9 0.1 1.5 0.7 0.7 0.6 0.7 1.5 0 0.9-0.7 1.5-0.6 0.7-1.5 0.7zm5.5 0q-0.9 0-1.5-0.7-0.7-0.6-0.7-1.5 0-0.9 0.7-1.5 0.6-0.6 1.5-0.7 0.9 0.1 1.5 0.7 0.7 0.6 0.7 1.5 0 0.9-0.7 1.5-0.6 0.7-1.5 0.7z"/><path class="a" d="m-101.7 64.8h1.7v1.1h-14.2v-1.1h8.2v-24.7q0-2.2-2-2.2-1.9 0-1.9 2.2v11.6h-4.3v-9.2q0-2.4 1.8-4 1.7-1.7 4.4-1.7 2.7 0 4.5 1.7 1.8 1.6 1.8 4v22.3z"/><path class="a" d="m-93.6 65.9h-8.3v-1.1h4v-26.9h-1.4v-1.1h5.7v29.1zm-2.2 9.3q-0.7 0-1.2-0.5-0.4-0.5-0.4-1.2 0-0.6 0.4-1.1 0.5-0.5 1.2-0.5 0.7 0 1.2 0.5 0.4 0.4 0.4 1.1 0 0.7-0.4 1.2-0.5 0.5-1.2 0.5zm0-4.2q-0.7 0-1.2-0.5-0.4-0.4-0.4-1.1 0-0.7 0.4-1.2 0.5-0.4 1.2-0.4 0.7 0 1.2 0.4 0.4 0.5 0.4 1.2 0 0.7-0.4 1.1-0.5 0.5-1.2 0.5z"/><path class="a" d="m-77.8 64.8h1.7v1.1h-14.3v-1.1h8.2v-24.7q0-2.2-1.9-2.2-1.9 0-1.9 2.2v11.6h-4.4v-9.2q0-2.4 1.8-4 1.8-1.7 4.5-1.7 2.7 0 4.5 1.7 1.8 1.6 1.8 4v22.3z"/><path class="a" d="m-59.9 64.8v1.1h-18.1v-1.1h12.1v-24.8q0-2.1-2-2.2-1.9 0-1.9 2.2v11.6h-4.3v-9.1q0-2.4 1.8-4 1.7-1.7 4.4-1.7 2.7 0 4.5 1.7 1.8 1.6 1.8 4v22.3zm-8 8.8q-0.9 0-1.5-0.6-0.6-0.7-0.6-1.5 0-0.9 0.6-1.6 0.6-0.6 1.5-0.6 0.9 0 1.6 0.6 0.6 0.7 0.6 1.6 0 0.9-0.6 1.5-0.7 0.6-1.6 0.6z"/><path class="a" d="m-53.5 65.9h-8.3v-1.1h3.9v-36.7h-1.3v-1h5.7z"/><path class="a" d="m-45.3 65.9h-4.4v-37.8h-1.4v-1h5.8z"/><path class="a" d="m-34.4 61.1v1h-1.7v14q0 1.9-1.8 3.3-1.8 1.4-4.5 1.4h-0.8v-0.9h0.8q2 0 2-1.8v-43.9h-1.4v-0.8h5.7v27.7h1.7z"/><path fill-rule="evenodd" class="a" d="m-18.4 60.9v1.2h-17.9v-1.2h4v-26.7h-1.5v-1h5.7v0.8q1.3-1 3.3-1 4.7 0 4.7 5v22.9zm-6.1 0v-24.8q0-2-1.6-2-1.1 0-2 0.9v25.9z"/><path fill-rule="evenodd" class="a" d="m-5.6 34.6q1.8 1.7 1.8 4v17.8q0 2.4-1.8 4-0.3 0.3-0.7 0.5-1.6 1.1-3.8 1.2h-10.2v-1.2h3.9v-22.3q0-2.3 1.8-4 1.8-1.6 4.5-1.6 2.7 0 4.5 1.6zm-2.6 1.6q0-2.2-1.9-2.2-1.9 0-1.9 2.2v24.7h1.9q1.9 0 1.9-2.1z"/><path class="b" d="m-126.8 71.6l-1.2-1-1 1.1 1.2 1.1z"/><path class="c" d="m-124.6 71.4l-1.2-0.9-1 1.1 1.2 1z"/><path class="d" d="m-126.8 71.6z"/><path fill-rule="evenodd" class="e" d="m-116.7 75.4q1 0.7 2 1.1 0.9 0.4 2.4 0.5l-0.6 1.7q-2.5 0-3.8 0.4l-2.6 0.7q-1.7 0.5-3.4 0.5v0.1h-0.5q-0.8 0-1.3-0.4-0.5-0.3-0.7-1.9l-1.1 0.8q-1.6-0.2-1.9-0.2-0.3-0.1-0.3-0.2 0 0 0-0.1 0-0.2 0.1-0.4l0.5-1.4q0.3-0.7 0.9-1.1 0.6-0.3 1.5-0.7-0.1-0.3-0.3-0.8l0.9-1.2q0.2 1.6 0.4 3.5 0 1.4 0.3 1.8 0.2 0.4 0.9 0.4h0.6 1q0.8 0 2.3-0.3 1.6-0.4 2.6-0.8-2-1.3-2.8-1.3-0.5 0-1.2 0.4l-0.3 0.2q0.6-2.2 2.2-2.2 0.8 0 2.2 0.9zm-9.5 1.9q0.3 0 0.9-0.1l-0.1-1q0-0.1 0-0.9h-0.1l-0.4 0.7-0.4 0.1c-0.9 0.3-1.2 0.5-1.3 1q0.6 0.2 1.4 0.2z"/><path class="f" d="m-101.3 83.1l1.1 1.1 1.2-1.1-1.2-1.1z"/><path class="g" d="m-101.3 83.1z"/><path class="h" d="m-103.6 83.2l1.1 1.1 1.2-1.2-1.2-1.1z"/><path class="i" d="m-45 70.7c-0.2-0.1-0.4-0.5-0.7-1l-0.3-0.4q-0.1 0.2-0.5 0.8l-0.4 0.6q0.2 0.3 0.3 1.6l0.3 3.9q0.1 1.1 0.1 1.8c0 0.5-0.3 0.5-1.4 0.5h-5.7c-0.6 0-0.9-0.3-1-0.9q0-0.8-0.4-5.8 0.1-0.2 0.5-0.8l0.2-0.3c-0.2-0.1-0.5-0.5-0.8-1l-0.2-0.4q-0.2 0.2-0.6 0.8l-0.4 0.6q0.3 0.4 0.4 1.6l0.3 3.9q0.1 1.1 0.1 1.8c0 0.5-0.4 0.5-1.4 0.5h-11.2q0.2-0.5 0.2-1 0-0.4-0.1-1-0.2-0.6-0.4-0.6 0 0 0 0l-1 1.1q0.3 0.8 0.3 1.4-0.4 0.2-0.8 0.2c-0.6 0-1.2-0.3-1.2-0.6q0-0.2 0.2-0.6 0.1-0.2 0.1-0.3 0-0.1 0-0.1-0.3 0-0.8 0.7-0.6 0.9-1.8 0.9-1.4 0-1.4-0.9 0-0.4-0.1-0.4-0.2 0-0.4 0.3-0.6 0.9-2 0.9h-23.3q0.3-0.5 0.3-1.1 0-0.8-0.8-2.3l-1.1 1.3q0.2 0.6 0.6 1.3 0.2 0.4 0.2 0.5 0 0.3-1.7 0.3h-5.8q-0.8 0-1.1-0.4-0.2-0.5-0.2-1.3 0-0.1 0-1.1 0.1-1.5 0.1-2 0-2.6-0.3-4.4l-1 1.1q0.4 2.1 0.4 5.3 0 0.4 0 1 0 0.6 0 0.8c0 1.8 0.6 2.7 2.3 2.8v0.1h4.8q0.7-0.1 1.4-0.2 0.7-0.3 1.1-0.6 0.3-0.3 0.6-0.8 0.1 0.8 0.5 1.2 0.4 0.4 1.3 0.4h21.9q0.9-0.1 1.9-1 0.3 0.9 1.7 0.9 0.8 0 1.6-0.7 0.3 0.7 1.4 0.7 0.9 0 1.7-0.8 0.3-0.2 0.5-0.5 0.3 0.6 0.7 0.9 0.5 0.5 0.9 0.5h9.3q1-0.1 1.5-0.4 0.6-0.4 0.8-1c0.3 0.9 0.9 1.4 1.6 1.4h5q1.2-0.1 1.8-0.5 0.7-0.4 0.9-1.1 0.1-0.6 0.1-1.6 0-1.5-0.3-5.4 0.2-0.2 0.5-0.8l0.2-0.3z"/><path class="j" d="m-38.7 19.5q-0.3 0.6-0.4 0.9c0.1 0.1 0.2 0.4 0.2 0.9l0.2 2.9c0.1 0.6 0.1 1.1 0.1 1.5q0 0.4-0.1 0.5-0.1 0.1-0.6 0.3-0.4 0.2-1.3 0.2c-0.9 0-1.5-0.4-1.5-1.1q0-0.3 0.3-0.9 0.1-0.2 0.1-0.3 0 0-0.1 0-0.1 0-0.4 0.6-0.3 0.7-0.3 1.2 0 1.5 2 1.5 0.7 0 1.3-0.2 0.6-0.2 0.8-0.9 0.3-0.7 0.3-1.3c0-0.2-0.1-0.7-0.1-1.4-0.1-1.9-0.2-2.5-0.2-2.8q0-0.4 0.3-0.8 0.1-0.1 0.1-0.1-0.2-0.2-0.7-0.7z"/><path class="k" d="m-32.9 24.1q0-0.5-0.4-1.4l-0.6 0.8q0.1 0.4 0.3 0.7 0.1 0.3 0.1 0.3 0 0.2-0.9 0.2h-1.3q-0.5 0-0.6-0.3-0.2-0.2-0.2-0.7 0-0.1 0-0.6 0.1-0.9 0.1-1.1 0-1.5-0.2-2.5l-0.5 0.6q0.2 1.2 0.2 3 0 0.2 0 0.6 0 0.3 0 0.4c0 1 0.3 1.5 1.2 1.6q0.2 0 0.3 0 0 0 0 0 0.9 0 1.3-0.1 0.4-0.1 0.6-0.3 0.2-0.2 0.4-0.5 0.2-0.4 0.2-0.7z"/><path class="l" d="m-33.6 21.3l-0.9-0.4-0.5 0.9 0.9 0.5z"/><path class="m" d="m-29 27.3l0.7 0.6 0.6-0.6-0.7-0.7z"/><path class="n" d="m-27.7 27.3z"/><path class="o" d="m-27.7 27.3l0.7 0.6 0.6-0.6-0.6-0.7z"/><path class="p" d="m-22.1 21l-0.6-0.6-0.7 0.6 0.7 0.7z"/><path class="q" d="m-22.7 22.2l-0.7-0.6-0.6 0.6 0.6 0.6z"/><path fill-rule="evenodd" class="r" d="m-21 23.2q0.1 0 0.2 0.3 0.1 0.4 0.1 0.6 0 0.7-0.5 1.1-0.5 0.5-1 0.5-0.6 0-0.8-0.4-0.4 0.4-0.9 0.4-0.8 0-1-0.5-0.6 0.5-1.1 0.5h-0.4q-0.3 0-0.5-0.2-0.3-0.2-0.3-0.7-0.2 0.4-0.4 0.5-0.2 0.2-0.6 0.3-0.4 0.1-0.8 0.1h-0.5q-0.1 1-0.6 1.8-0.6 1-1.7 1-0.3 0-0.8-0.1-0.5-0.2-0.8-0.4 1.3-0.1 2-0.4 0.7-0.4 1.1-0.9 0.4-0.4 0.4-0.8 0-0.1 0-0.2h-0.6q-0.9 0-0.9-0.9 0-0.6 0.2-1.2 0.3-0.7 0.6-0.7 0.4 0 0.8 0.6 0.2 0.4 0.3 1.2h1q1 0 1-0.2 0 0-0.2-0.3-0.2-0.4-0.3-0.7l0.6-0.8q0.4 0.9 0.4 1.4 0 0.3-0.1 0.6h1q0.8 0 1.2-0.5 0.1-0.2 0.2-0.2 0 0 0 0.2 0 0.5 0.9 0.5 0.6 0 1-0.5 0.3-0.3 0.4-0.3 0 0 0 0 0 0 0 0.1-0.1 0.3-0.1 0.4c0 0.2 0.3 0.3 0.6 0.3q0.2 0 0.5-0.1-0.1-0.3-0.2-0.8l0.6-0.6q0 0 0 0zm-9 1.5c-0.2-0.5-0.5-0.8-0.7-0.8q-0.4 0-0.4 0.5 0 0.3 0.6 0.3z"/><path class="s" d="m-22.7 22.2z"/><path class="t" d="m-21.5 22.2l-0.6-0.6-0.6 0.6 0.6 0.6z"/><path class="u" d="m-16.5 21.3l-0.9-0.4-0.6 0.9 1 0.5z"/><path class="v" d="m-15.8 24.1q0-0.5-0.4-1.4l-0.7 0.8q0.2 0.4 0.4 0.7 0.1 0.3 0.1 0.3 0 0.2-1 0.2h-1.3q-0.4 0-0.6-0.3-0.1-0.2-0.1-0.7 0-0.1 0-0.6 0-0.9 0-1.1 0-1.5-0.1-2.5l-0.6 0.6q0.2 1.2 0.2 3 0 0.2 0 0.6 0 0.3 0 0.4c0 1 0.4 1.5 1.3 1.6q0.1 0 0.2 0 0 0 0.1 0 0.9 0 1.3-0.1 0.4-0.1 0.6-0.3 0.2-0.2 0.4-0.5 0.2-0.4 0.2-0.7z"/><path class="w" d="m-9 21.4l-0.6-0.7-0.7 0.7 0.6 0.6z"/><path class="x" d="m-10.3 21.4l-0.6-0.7-0.7 0.7 0.6 0.6z"/><path class="y" d="m-6.7 23.5q0.2 0.4 0.3 0.7 0.1 0.3 0.2 0.3-0.1 0.2-1 0.2h-2.1q0.1-0.3 0.1-0.6 0.1-0.5-0.4-1.4l-0.6 0.8q0.1 0.3 0.3 0.7 0.2 0.3 0.2 0.3 0 0.2-1 0.2h-1.7q-0.1-0.7-0.8-1.6l-0.4 0.9q0.8 1 0.8 1.4 0 0.4-0.3 0.8-0.3 0.4-1 0.7-0.8 0.3-1.8 0.4-0.4 0-0.4 0 0 0.1 0.1 0.1l0.7 0.4q0.3 0.2 0.6 0.2 1.1 0 1.8-0.8 0.6-0.8 0.7-2.2 0.1 0.3 0.3 0.5 0.3 0.2 0.5 0.2h0.4q0.4 0 0.8-0.1 0.4-0.1 0.6-0.3 0.2-0.1 0.4-0.5 0 0.5 0.3 0.7 0.2 0.2 0.7 0.2 0 0 0 0 0 0 0 0h0.2q0.9 0 1.3-0.1 0.4-0.1 0.6-0.3 0.2-0.2 0.4-0.5 0.2-0.4 0.2-0.7 0-0.5-0.4-1.4l-0.6 0.8z"/><path class="z" d="m-6.4 21.3l-0.9-0.4-0.5 0.9 0.9 0.5z"/><path class="A" d="m-4.8 25.7q0.5-0.6 0.5-1.8 0-0.2 0-1.1 0-1.2 0-1.8 0 0 0-0.3 0-0.7 0-1.1l-0.5 0.7q-0.2 0.3-0.2 0.9 0 0.2 0.1 0.9 0.1 1.9 0.1 3.6z"/><path class="B" d="m-3.5 26.8q0 0-0.1 0.1-0.5 0.1-0.6 0.1-0.2 0-0.4-0.1-0.2 0-0.3-0.2 0.1-0.2 0.4-0.2 0.2 0 0.4 0.2l0.2-0.4q-0.2-0.3-0.6-0.2c-0.4 0-0.6 0.2-0.7 0.8q0 0.3 0.4 0.5-0.2 0.1-0.3 0.2-0.2 0.2-0.2 0.3 0 0 0.1 0 0 0 0.5-0.3 0.5-0.2 1.1-0.3 0.1-0.4 0.1-0.4 0-0.1 0-0.1z"/><path fill-rule="evenodd" class="C" d="m37.8 8.2c0.8-0.3 1.6-0.3 2.4-0.1 0.4 0.1 0.8 0.4 1.1 0.8 0.1 0.5 0 0.9-0.3 1.3-0.5 0.7-1 1.2-1.8 1.6l-26.8 8.4q-0.2 0-0.2 0 0 0 0 0-0.1-0.1-0.1-0.1 0.1-0.2 0.2-0.2l25.5-11.7zm-7.9 1l-5.6 2.5-7.6-10.9 2.2-0.8zm33.4 57.4q-0.7 0.7-1.4 1.4c-10.8 10.8-28.4 10.8-39.2 0-8.6-8.5-10.6-21.7-4.9-32.4q0.5-0.2 0.8-0.3c0.8-0.5 1.8-0.6 2.7-0.4q0.5 0.2 1.2 0.3c0.6 0 1.2-0.2 1.6-0.6 0.5-0.5 0.8-1.1 1-1.7 0.1-0.3 0.2-0.6 0.3-0.9q0.2-0.4 0.5-0.8 0.1-0.1 0.2-0.2l0.3 2.2q0 0.1 0.1 0.2c0.2 0.7 0.9 1 1.5 0.7l4.2-1.6c0.4-0.1 0.7-0.5 0.8-0.9l0.7-5.5q0.3 0 0.5-0.1 1.4-0.1 2.7 0.1c1.3 0.2 2.6 0.2 3.9-0.1q0.2-0.1 0.4-0.2c0.4-0.2 0.8-0.5 0.9-1 0.2-0.4 0.2-0.8 0.1-1.2q-0.1-0.2-0.2-0.4c-0.5-0.7-1.3-1.3-2.1-1.6q-0.5-0.1-1-0.4 1.7-0.2 3.4-0.2c3.9-0.1 7.6 0.7 11.1 2.3q0 0.1-0.1 0.2-0.3 0.5-0.5 1.1-0.2 0.8 0.1 1.6 0.2 0.8 0.7 1.6c0 0.1 0 0.1-1.2 1.7q-0.2 0.3-0.4 0.5-0.8 0.7-1.2 1.6-0.1 1.1 0 2.1 0.2 1.2 0.1 2.4-0.1 0.6 0 1.3 0.2 0.9 0.7 1.7c0.9 1.2 2 2.2 3.2 3 1.1 0.8 2.4 1.3 3.7 1.5q1.2 0 2.4-0.3c0.8-0.2 1.7-0.4 1.7-0.3q0.2 0.1 0.3 0.4 0.2 0.3 0.2 0.7 0.1 0.5 0.2 1c0 1.1 0.3 2.1 0.9 3.1q0.3 0.5 0.4 1.1 0 0.9-0.3 1.7-0.2 0.3-0.3 0.8-0.4 1.7-0.7 3.5-0.3 2-0.9 3.9-0.4 1.3-0.5 2.7c-0.2 0.8-0.1 1.6 0.1 2.3q0.5 1.1 1.1 2.1 0.1 0.1 0.2 0.3zm-36.5-48.4l5.8-1.9-1.9 14.2-2.1 0.9-1.8-13.2zm-4.3 14.7q0 0 0 0zm-2.6-0.5q0 0 0 0 0 0 0 0zm0 0c1.6-2.2 3.5-4.1 5.6-5.8l0.2 1.7q-0.2 0.1-0.4 0.3-0.7 0.4-1.2 1.1-0.6 0.6-0.9 1.4-0.2 0.5-0.4 1c-0.1 0.3-0.2 0.6-0.2 0.7q-0.4 0-0.7-0.1-1-0.4-2-0.3zm14.2-8.8l0.2-1.5q1-0.3 2.1-0.5 0.1 0.3 0.3 0.6c0.5 0.8 1.3 1.4 2.2 1.6l0.1 0.1c-0.6 0-1.2-0.1-1.9-0.2q-1.5-0.2-3-0.1zm-3.3 47.8c1.2 0.7 1.8 0.4 2.3-0.4q0.3-0.6 0.2-1.3v-1.7q0-0.5 0-0.9 0-0.4 0.1-0.8 0.2-0.4 0.5-0.8 0.3-0.5 0.6-0.9 0.2-0.2 0.5-0.5 0.7-0.6 1.2-1.5 0.4-0.9 0.6-1.8c0.1-0.3 0.2-0.6 0.3-0.9q0.2-0.3 0.4-0.6 0.2-0.2 0.5-0.4 0.2-0.1 0.6-0.3 1-0.5 1.8-1.2 0.6-0.5 1.1-1.3 0.5-0.7 0.7-1.6 0.2-0.5 0.3-1 0.1-0.5 0.3-1 0.2-0.3 0.5-0.6 0.6-0.5 0.9-1.1 0.5-0.8 0.5-1.7c0.1-1.3-0.6-2.4-1.7-3q-0.7-0.4-1.6-0.7-0.8-0.3-1.6-0.5c-0.6-0.2-1.3-0.4-1.8-0.6q-0.5-0.2-1-0.4-0.2-0.2-0.4-0.4-0.2-0.4-0.4-0.8-0.2-0.6-0.5-1.1-0.4-0.7-1.1-1-0.6-0.3-1.3-0.4-0.5-0.1-0.9-0.1-0.6 0-1.2-0.1-0.3-0.2-0.6-0.4c-0.1-0.1-0.1-0.2-0.3-0.3q-0.4-0.4-0.9-0.7-0.6-0.4-1.2-0.6-0.9-0.3-1.8-0.4-0.8-0.1-1.7 0.1c-1.1 0.3-2.2 1-3 1.9q-0.6 0.8-0.7 1.8-0.1 0.2-0.1 0.3-0.1 0.4-0.3 0.8-0.2 0.5-0.5 1-0.9 1.5-1.1 3.2-0.1 1 0.1 2 0.2 1 0.6 2 0.4 0.9 1 1.7 0.5 0.8 1.1 1.5 0.5 0.5 1.1 0.9 0.3 0.2 0.6 0.4 0.3 0.3 0.4 0.6 0.3 0.7 0.4 1.4c0.2 0.6 0.3 1.4 0.5 2.3q0.2 1.3 0.5 2.8 0.3 1.4 0.7 2.8 0.5 1.4 1.3 2.7 0.7 1.1 1.6 2 0.9 1 1.9 1.6zm-0.1-3.2q-0.8-0.8-1.4-1.7-0.6-1.1-1-2.2-0.4-1.3-0.7-2.5c-0.2-0.9-0.3-1.8-0.5-2.7q-0.2-1.4-0.4-2.5-0.2-0.9-0.6-1.8-0.3-0.7-0.9-1.2-0.4-0.4-0.9-0.8-0.4-0.3-0.8-0.6-0.5-0.5-0.8-1.1-0.5-0.6-0.8-1.4-0.3-0.7-0.5-1.5-0.1-0.6-0.1-1.2 0.3-1.3 0.9-2.4 0.3-0.7 0.6-1.1 0.2-0.6 0.4-1.1 0-0.2 0.1-0.5 0.1-0.4 0.3-0.8 0.3-0.4 0.8-0.7 0.4-0.2 0.9-0.4 0.4-0.1 0.9 0 1 0.1 1.9 0.6 0.3 0.2 0.6 0.4l0.2 0.2c0.4 0.5 1 0.9 1.6 1.1q0.8 0.2 1.7 0.2c0.3 0 0.6 0 0.8 0.1q0.3 0 0.5 0.1 0.1 0 0.2 0.1 0.2 0.3 0.3 0.7 0.2 0.7 0.6 1.3 0.4 0.6 1.1 1.1 0.7 0.4 1.5 0.6c0.5 0.2 1.2 0.4 1.9 0.7 0.5 0.1 1.1 0.3 1.5 0.5q0.6 0.1 1.2 0.4 0.2 0.2 0.4 0.4 0.1 0.2 0.1 0.5 0 0.3-0.2 0.6-0.2 0.4-0.5 0.7-0.5 0.4-0.8 1-0.5 0.7-0.6 1.6-0.1 0.4-0.3 0.9-0.2 0.5-0.5 1.1-0.2 0.4-0.6 0.7-0.6 0.5-1.3 0.8-0.4 0.2-0.8 0.5-0.6 0.3-1.1 0.9-0.5 0.6-0.7 1.2-0.2 0.6-0.4 1.1-0.2 0.7-0.4 1.4-0.4 0.5-0.8 0.9-0.3 0.3-0.6 0.6-0.5 0.6-0.9 1.2-0.4 0.6-0.6 1.3-0.3 0.7-0.3 1.4-0.1 0.5 0 1.1v0.4l-0.2-0.2zm25-43.8q1.4 0.7 2.7 1.7c12.5 8.8 15.4 26.1 6.5 38.5-0.3-0.5-0.5-1-0.7-1.3q-0.1-0.6 0-1.1 0.1-1.2 0.5-2.3 0.6-2 0.9-4.2 0.3-1.6 0.7-3.2 0.1-0.4 0.3-0.8c0.3-0.9 0.4-1.8 0.4-2.7q-0.2-1-0.7-1.9-0.2-0.4-0.4-0.9-0.2-0.7-0.3-1.4 0-0.6-0.1-1.2-0.2-0.7-0.5-1.3-0.3-0.7-0.9-1.2c-0.8-0.7-2.2-0.4-3.7-0.1q-0.8 0.2-1.7 0.2c-1-0.2-1.8-0.5-2.6-1.1q-1.4-0.9-2.5-2.3-0.2-0.3-0.3-0.7-0.1-0.4 0-0.8 0.1-1.4-0.1-2.8c0-0.6-0.1-1.1-0.1-1.1q0.2-0.4 0.6-0.7 0.3-0.4 0.6-0.7c2.2-3 2.1-3.1 1.3-4.4q-0.3-0.5-0.4-1.1-0.1-0.1 0-0.3 0-0.3 0.2-0.5 0.1-0.2 0.2-0.3 0 0 0.1 0zm-41-2.4zm0 0l2.1-0.7-1.7 4.4-0.1 0.1zm34.3-10.4l-0.4 2.4q-1.1-0.2-2.3-0.4l0.3-2.3q1.2 0.1 2.4 0.3zm4.8 1.2l-0.7 2.3q-1.1-0.4-2.2-0.6l0.6-2.4q1.2 0.3 2.3 0.7zm4.7 1.8l-1.1 2.2q-1-0.5-2.1-0.9l0.9-2.3q1.1 0.5 2.3 1zm3 4.4q-1-0.6-2-1.1l1.2-2.1q1.1 0.6 2.1 1.2zm3.7 2.8q-0.9-0.8-1.8-1.4l1.4-2q1 0.8 2 1.6zm5.1 1.6l-1.8 1.6q-0.8-0.9-1.6-1.7l1.7-1.7q0.9 0.9 1.7 1.8zm3.1 3.9l-2 1.3q-0.7-0.9-1.4-1.8l1.9-1.5q0.8 0.9 1.5 2zm0.4 5.3q-0.6-1-1.2-2l2.1-1.2q0.6 1 1.2 2.1zm4.1 3.5l-2.3 0.8q-0.3-1.1-0.8-2.2l2.2-0.9q0.5 1.1 0.9 2.3zm1.3 4.7q0 0 0 0zm0 0l-2.3 0.5q-0.2-1.1-0.6-2.2l2.3-0.7q0.4 1.2 0.6 2.4zm0.7 4.9l-2.4 0.2q-0.1-1.1-0.2-2.3l2.4-0.3q0.1 1.2 0.2 2.4zm0.1 5q0 0 0 0zm0 0l-2.4-0.2q0-1.1 0-2.3h2.4q0 1.2 0 2.5zm-0.7 4.9l-2.3-0.5q0.2-1.1 0.3-2.3l2.4 0.3q-0.1 1.3-0.4 2.5zm-1.2 4.8l-2.3-0.8q0.4-1.1 0.7-2.2l2.3 0.6q-0.3 1.2-0.7 2.4zm-1.9 4.5q0 0 0 0zm0 0l-2.1-1q0.5-1.1 0.9-2.1l2.2 0.9q-0.4 1.1-1 2.2zm0 0q0 0 0 0zm-2.5 4.3l-2-1.3q0.7-1 1.3-2l2 1.2q-0.6 1.1-1.3 2.1zm-3 3.9l-1.8-1.5q0.8-0.9 1.5-1.8l1.9 1.4q-0.8 1-1.6 1.9zm-3.5 3.5q0 0 0 0zm0 0l-1.6-1.8q0.9-0.7 1.7-1.5l1.7 1.6q-0.8 0.9-1.8 1.7zm0 0q0 0 0 0zm-3.9 3.1v-0.1l-1.4-1.9q1-0.7 1.9-1.4l1.5 1.9q-1 0.8-2 1.4zm-5.4 0.4q1.1-0.5 2.1-1.1l1.2 2.1q-1.1 0.6-2.2 1.1zm-3.5 4l-0.8-2.2q1.1-0.4 2.2-0.8l0.9 2.2q-1.2 0.5-2.3 0.9zm-4.8 1.2l-0.5-2.3c0.7-0.2 1.5-0.3 2.3-0.5l0.6 2.3q-1.2 0.3-2.4 0.5zm-5 0.6q0 0 0 0zm0 0l-0.1-2.4q1.2 0 2.3-0.2l0.3 2.4q-1.2 0.2-2.5 0.2zm-4.9 0q0 0 0 0zm0 0l0.1-2.4q1.2 0.1 2.4 0.1v2.4q-1.3 0-2.5-0.1zm-4.9-0.6q0 0 0 0zm0 0l0.4-2.4q1.2 0.2 2.3 0.4l-0.3 2.4q-1.2-0.2-2.4-0.4zm-4.8-1.4q0 0 0 0zm0 0l0.8-2.2q1.1 0.4 2.2 0.7l-0.7 2.3q-1.2-0.3-2.3-0.8zm-4.6-1.9l1.1-2.1q1 0.5 2.1 1l-0.9 2.2q-1.2-0.5-2.3-1.1zm-4.3-2.5l1.4-2q0.9 0.7 1.9 1.3l-1.2 2q-1-0.6-2.1-1.3zm-3.9-3l1.6-1.8q0.9 0.7 1.8 1.5l-1.5 1.9q-1-0.8-1.9-1.6zm-3.5-3.6l1.9-1.5q0.7 0.9 1.5 1.7l-1.7 1.7q-0.8-0.9-1.7-1.9zm-2.9-3.9q0 0 0 0zm0 0l2-1.3q0.6 0.9 1.3 1.9l-1.9 1.4q-0.8-1-1.4-2zm0 0zm-2.5-4.3q0 0 0 0zm0 0l2.2-1.1q0.5 1.1 1.1 2.1l-2.1 1.2q-0.6-1.1-1.2-2.2zm-1.8-4.6l2.3-0.7q0.3 1.1 0.8 2.1l-2.3 0.9q-0.4-1.1-0.8-2.3zm1.1-5.2q0.2 1.1 0.5 2.2l-2.3 0.6c-0.2-0.8-0.4-1.6-0.5-2.4zm-3-4.5q0 0 0 0zm0 0l2.4-0.1q0.1 1.2 0.2 2.3l-2.4 0.3q-0.1-1.2-0.2-2.5zm0 0zm0.1-4.9l2.4 0.2q-0.1 1.1-0.1 2.3h-2.4q0-1.3 0.1-2.5zm0 0zm0.8-4.9l2.3 0.5q-0.2 1.1-0.4 2.3l-2.4-0.4q0.2-1.2 0.5-2.4zm3.6-3.9q-0.4 1-0.7 2.2l-2.3-0.7q0.3-1.2 0.7-2.3zm-0.2-5.4l2.1 1.1c-0.3 0.7-0.7 1.4-1 2.1l-2.2-1c0.3-0.7 0.7-1.4 1.1-2.2zm3.8-14.2l-2.3-3h0.2l4.1 2.1-2 0.9z"/></g></svg>