<svg width="210" height="86" viewBox="0 0 210 86" fill="none" xmlns="http://www.w3.org/2000/svg">
<g clip-path="url(#clip0_81_330)">
<path d="M6.24626 64.8064H8.18012V40.0684C8.18012 38.5919 7.54484 37.8518 6.2799 37.8518C5.01495 37.8518 4.32362 38.5919 4.32362 40.0684V62.6214C4.32362 64.0774 4.9645 64.8045 6.24626 64.8045V64.8064ZM12.5262 65.9203H6.24626C4.78326 65.9203 3.51457 65.5502 2.44395 64.8064C2.21039 64.6502 1.98804 64.4791 1.7713 64.2987C0.590433 63.2183 0 61.885 0 60.2987V42.5026C0 40.9182 0.588565 39.583 1.7713 38.5026C2.96711 37.3999 4.46749 36.8476 6.2799 36.8476C8.0923 36.8476 9.56091 37.3999 10.7549 38.5026C11.9339 39.583 12.5262 40.9182 12.5262 42.5026V65.9221V65.9203ZM3.50897 33.4724C2.90546 33.4724 2.39537 33.2623 1.97683 32.8346C1.5639 32.4106 1.35837 31.903 1.35837 31.3097C1.35837 30.7165 1.5639 30.207 1.97683 29.7961C2.39537 29.3795 2.90546 29.1694 3.50897 29.1694C4.11248 29.1694 4.61136 29.3795 5.04111 29.7961C5.46711 30.207 5.68199 30.7128 5.68199 31.3097C5.68199 31.9067 5.46711 32.4106 5.04111 32.8346C4.61136 33.2623 4.10127 33.4724 3.50897 33.4724ZM9.01719 33.4724C8.42302 33.4724 7.91106 33.2623 7.48505 32.8346C7.05531 32.4106 6.84417 31.903 6.84417 31.3097C6.84417 30.7165 7.05531 30.207 7.48505 29.7961C7.91106 29.3795 8.42115 29.1694 9.01719 29.1694C9.61323 29.1694 10.1271 29.3795 10.5493 29.7961C10.9753 30.207 11.1902 30.7128 11.1902 31.3097C11.1902 31.9067 10.9753 32.4106 10.5493 32.8346C10.1289 33.2623 9.61697 33.4724 9.01719 33.4724Z" fill="white"/>
<path d="M28.3108 64.8064H30.0485V65.9203H15.7847V64.8064H23.9648V40.0684C23.9648 38.5919 23.3183 37.8518 22.0309 37.8518C20.7436 37.8518 20.1083 38.5919 20.1083 40.0684V51.6703H15.7847V42.5026C15.7847 40.9182 16.3732 39.583 17.556 38.5026C18.7294 37.3999 20.2204 36.8476 22.0309 36.8476C23.8415 36.8476 25.3232 37.3999 26.5171 38.5026C27.7129 39.583 28.309 40.9182 28.309 42.5026V64.8082L28.3108 64.8064Z" fill="white"/>
<path d="M36.3827 65.9202H28.1484V64.8064H32.0591V37.8517H30.6802V36.8457H36.3827V65.9184V65.9202ZM34.1966 75.1586C33.7407 75.1586 33.3558 74.9968 33.0401 74.677C32.728 74.3553 32.573 73.9704 32.573 73.5259C32.573 73.0815 32.728 72.6891 33.0401 72.3748C33.3558 72.0643 33.7407 71.91 34.1966 71.91C34.6525 71.91 35.0281 72.0643 35.3532 72.3748C35.6746 72.6891 35.8372 73.0722 35.8372 73.5259C35.8372 73.9797 35.6746 74.3534 35.3532 74.677C35.03 74.9968 34.6432 75.1586 34.1966 75.1586ZM34.1966 71.0155C33.7407 71.0155 33.3558 70.8556 33.0401 70.5432C32.728 70.2326 32.573 69.8533 32.573 69.4088C32.573 68.9644 32.728 68.5701 33.0401 68.2503C33.3558 67.9342 33.7407 67.778 34.1966 67.778C34.6525 67.778 35.0281 67.9342 35.3532 68.2503C35.6746 68.5701 35.8372 68.9569 35.8372 69.4088C35.8372 69.8607 35.6746 70.2326 35.3532 70.5432C35.03 70.8574 34.6432 71.0155 34.1966 71.0155Z" fill="white"/>
<path d="M52.1656 64.8064H53.9032V65.9203H39.6394V64.8064H47.8195V40.0684C47.8195 38.5919 47.173 37.8518 45.8857 37.8518C44.5983 37.8518 43.963 38.5919 43.963 40.0684V51.6703H39.6394V42.5026C39.6394 40.9182 40.228 39.583 41.4107 38.5026C42.5841 37.3999 44.0751 36.8476 45.8857 36.8476C47.6962 36.8476 49.1779 37.3999 50.3718 38.5026C51.5677 39.583 52.1637 40.9182 52.1637 42.5026V64.8082L52.1656 64.8064Z" fill="white"/>
<path d="M70.1233 64.8064V65.9203H52.0029V64.8064H64.0937V40.0479C64.0937 38.5863 63.4416 37.8425 62.1375 37.8202C60.8688 37.8202 60.2372 38.564 60.2372 40.0479V51.6387H55.8912V42.4803C55.8912 40.8959 56.4779 39.5607 57.6513 38.4803C58.8471 37.3943 60.34 36.8476 62.1375 36.8476C63.9349 36.8476 65.4502 37.3943 66.6461 38.4803C67.8251 39.5607 68.4174 40.8959 68.4174 42.4803V64.8064H70.1233ZM62.1393 73.6282C61.5358 73.6282 61.0257 73.4144 60.6072 72.9904C60.1943 72.5627 59.9887 72.055 59.9887 71.4655C59.9887 70.8761 60.1943 70.3572 60.6072 69.9407C61.0257 69.5297 61.5358 69.3252 62.1393 69.3252C62.7428 69.3252 63.2417 69.5297 63.6715 69.9407C64.0975 70.3572 64.3123 70.8649 64.3123 71.4655C64.3123 72.0662 64.0975 72.5627 63.6715 72.9904C63.2417 73.4144 62.7316 73.6282 62.1393 73.6282Z" fill="white"/>
<path d="M76.4575 65.9203H68.2231V64.8064H72.1338V28.1429H70.7549V27.148H76.4575V65.9203Z" fill="white"/>
<path d="M84.7122 65.9203H80.2578L80.2895 28.1429H78.8994V27.148H84.7122V65.9203Z" fill="white"/>
<path d="M95.6109 61.1262V62.056H93.8733V76.0624C93.8733 77.3678 93.281 78.4743 92.102 79.3762C90.9062 80.2967 89.4133 80.7578 87.627 80.7578H86.8011V79.9173H87.627C88.9312 79.9173 89.5833 79.3074 89.5833 78.0931V34.2163H88.1932V33.3757H93.8751V61.1244H95.6128L95.6109 61.1262Z" fill="white"/>
<path d="M105.583 60.9477V36.0796C105.583 34.776 105.039 34.1066 103.954 34.0694C103.242 34.0694 102.575 34.3892 101.943 35.0215V60.9477H105.583ZM109.873 60.9477H111.644V62.0616H93.7089V60.9477H97.6532V34.2312H96.2406V33.2363H101.943V34.0154C102.752 33.3311 103.828 32.989 105.17 32.989C108.303 32.989 109.875 34.6756 109.875 38.0489V60.9477H109.873Z" fill="white"/>
<path d="M121.829 58.7646V36.2116C121.829 34.7351 121.183 33.995 119.895 33.995C118.608 33.995 117.973 34.7351 117.973 36.2116V60.9496H119.895C121.183 60.9496 121.829 60.2225 121.829 58.7664V58.7646ZM124.382 34.6439C125.577 35.7244 126.173 37.0595 126.173 38.6439V56.4401C126.173 58.0263 125.576 59.3596 124.382 60.44C124.165 60.6204 123.937 60.7915 123.698 60.9477C122.646 61.6692 121.388 62.0393 119.927 62.0616H109.737V60.9477H113.625V38.642C113.625 37.0577 114.223 35.7225 115.417 34.6421C116.59 33.5394 118.081 32.9871 119.892 32.9871C121.702 32.9871 123.184 33.5394 124.378 34.6421L124.382 34.6439Z" fill="white"/>
<path d="M3.21183 71.5845L2.01788 70.5618L1.0332 71.7166L2.18231 72.7524L3.21183 71.5845Z" fill="url(#paint0_linear_81_330)"/>
<path d="M5.40154 71.4321L4.21694 70.4521L3.23413 71.5846L4.37202 72.5757L5.40154 71.4321Z" fill="url(#paint1_linear_81_330)"/>
<path d="M3.2229 71.5744L3.21216 71.5851L3.2229 71.5958L3.23365 71.5851L3.2229 71.5744Z" fill="url(#paint2_linear_81_330)"/>
<path d="M13.2735 75.4041C12.3785 74.7979 11.6479 74.491 11.1061 74.491C10.0672 74.491 9.34784 75.2293 8.94986 76.6928L9.24881 76.4938C9.68043 76.2074 10.0672 76.0643 10.4091 76.0643C10.951 76.0643 11.8684 76.505 13.1632 77.3734C12.5224 77.6486 11.6816 77.9127 10.6427 78.1656C9.61503 78.4185 8.83962 78.5394 8.32019 78.5394H7.30375V78.5282H6.71705C6.26302 78.5282 5.94351 78.385 5.78843 78.1098C5.62213 77.8234 5.5231 77.2302 5.46705 76.3265C5.37923 75.0173 5.25778 73.8383 5.1027 72.7709L4.16287 74.015C4.35158 74.3348 4.45061 74.5877 4.47303 74.7849C3.86391 75.0378 3.3669 75.2795 2.98013 75.512C2.60457 75.7425 2.31683 76.0959 2.12811 76.5794L1.57505 78.0094C1.51899 78.1414 1.49844 78.2734 1.50778 78.4166C1.50778 78.4613 1.50778 78.4929 1.51899 78.5152C1.54142 78.6026 1.64044 78.6584 1.82916 78.6918C2.01787 78.7253 2.64754 78.7904 3.74246 78.9001L4.77012 78.0633C4.91399 79.1419 5.14568 79.7909 5.46705 80.0214C5.78843 80.2409 6.2518 80.3524 6.8385 80.3524H7.30375V80.3469C8.42109 80.319 9.55524 80.146 10.6987 79.8243L13.2978 79.0972C14.1815 78.8443 15.4315 78.7235 17.0571 78.7235L17.7092 76.9513C16.7357 76.929 15.9286 76.7969 15.2877 76.5217C14.658 76.2577 13.9835 75.8727 13.2753 75.3985L13.2735 75.4041ZM3.81907 77.2525C3.29964 77.2525 2.83439 77.1967 2.44762 77.087C2.48125 76.5589 2.81197 76.3934 3.69762 76.0847L4.07318 75.9527L4.48237 75.2479H4.55898C4.61503 75.8095 4.63559 76.1182 4.6468 76.1721L4.68043 77.1949C4.31608 77.2283 4.02834 77.2507 3.8172 77.2507L3.81907 77.2525Z" fill="url(#paint3_linear_81_330)"/>
<path d="M28.677 83.1083L29.8373 84.1981L30.9547 83.086L29.8149 81.974L28.677 83.1083Z" fill="url(#paint4_linear_81_330)"/>
<path d="M28.6636 83.0982L28.6528 83.1089L28.6636 83.1196L28.6743 83.1089L28.6636 83.0982Z" fill="url(#paint5_linear_81_330)"/>
<path d="M26.377 83.1734L27.5373 84.252L28.6546 83.1084L27.5036 81.9852L26.377 83.1734Z" fill="url(#paint6_linear_81_330)"/>
<path d="M84.9889 70.705C84.8001 70.5841 84.5797 70.2326 84.2583 69.6822L84.0154 69.2638C83.9051 69.407 83.7389 69.6822 83.4735 70.0783L83.0755 70.6845C83.2418 70.9263 83.3521 71.4655 83.4175 72.2912L83.7389 76.2205C83.7949 76.9587 83.8267 77.5519 83.8267 78.0261C83.8267 78.5003 83.4735 78.5319 82.401 78.5319H76.6518C76.0875 78.5319 75.7773 78.1805 75.7344 77.6189C75.6783 77.0461 75.5457 75.1103 75.314 71.8189C75.3906 71.6534 75.5457 71.3893 75.768 71.0267L75.9567 70.7068C75.768 70.586 75.5475 70.2345 75.2261 69.6841L74.9832 69.2657C74.873 69.4088 74.7067 69.6841 74.4414 70.0801L74.0434 70.6864C74.2097 70.9281 74.3199 71.4674 74.3853 72.2931L74.7067 76.2223C74.7628 76.9606 74.7945 77.5538 74.7945 78.028C74.7945 78.5022 74.4414 78.5338 73.3689 78.5338H62.2142C62.3356 78.214 62.4029 77.8513 62.4029 77.4664C62.4029 77.1912 62.3581 76.8713 62.259 76.4864C62.16 76.1015 62.0591 75.9025 61.9489 75.9025C61.9264 75.9025 61.904 75.9137 61.8816 75.9471L60.8652 76.9922C61.0539 77.5538 61.1641 78.015 61.1753 78.3906C60.9212 78.5115 60.6559 78.5784 60.3906 78.5784C59.7721 78.5784 59.2396 78.3478 59.2396 78.0392C59.2396 77.8848 59.3069 77.6654 59.4395 77.3678C59.5068 77.2247 59.5386 77.1373 59.5386 77.0926C59.5386 77.0592 59.5161 77.048 59.4825 77.048C59.3162 77.048 59.0733 77.2674 58.7407 77.7193C58.3203 78.2921 57.7243 78.5784 56.9489 78.5784C55.953 78.5784 55.456 78.2697 55.456 77.6542C55.456 77.4459 55.4223 77.3455 55.3681 77.3455C55.2915 77.3455 55.1794 77.4329 55.0468 77.6207C54.6039 78.227 53.9294 78.5338 53.0232 78.5338H29.6712C29.8711 78.1489 29.9702 77.7751 29.9702 77.4218C29.9702 76.8602 29.7161 76.068 29.1966 75.0564L28.0905 76.4436C28.2568 76.8286 28.4661 77.247 28.7202 77.7212C28.864 77.9964 28.9294 78.1619 28.9294 78.227C28.9294 78.4352 28.3427 78.5357 27.1824 78.5357H21.3659C20.8241 78.5357 20.4709 78.3925 20.3046 78.0949C20.1383 77.7974 20.0617 77.379 20.0617 76.8397C20.0617 76.7188 20.0729 76.3562 20.0954 75.75C20.1402 74.6826 20.1626 74.0225 20.1626 73.7472C20.1626 72.0085 20.0636 70.5116 19.8637 69.2675L18.9238 70.413C19.1667 71.7891 19.2882 73.5613 19.2882 75.7389C19.2882 75.9918 19.277 76.3228 19.2658 76.73C19.2545 77.0815 19.2545 77.3362 19.2545 77.4999C19.2545 79.2832 19.9029 80.2056 21.6424 80.345V80.3618H26.3752V80.3562C26.876 80.3432 27.3506 80.2799 27.7897 80.1535C28.2867 80.0103 28.6529 79.8336 28.8846 79.6254C29.0845 79.4376 29.2938 79.1623 29.5143 78.7886C29.5479 79.3502 29.703 79.7462 29.9795 79.9768C30.2915 80.2446 30.7306 80.3562 31.2949 80.3618H31.3397H53.1877V80.358C53.7818 80.3432 54.4096 80.014 55.0673 79.3595C55.3214 80.0084 55.9081 80.3283 56.848 80.3283C57.3674 80.3283 57.8756 80.0754 58.3857 79.5584C58.6286 80.0642 59.0826 80.3171 59.7572 80.3171C60.3868 80.3171 60.9847 80.0531 61.549 79.5138C61.7265 79.3483 61.8704 79.1735 61.9918 78.9745C62.1918 79.3929 62.4347 79.7128 62.7 79.9322C63.0531 80.2186 63.3633 80.3618 63.6286 80.3618H72.8831C73.5838 80.3469 74.1069 80.226 74.4414 79.988C74.817 79.7351 75.0599 79.4041 75.1608 78.9764C75.5251 79.8671 76.0782 80.3636 76.8424 80.3636H81.7508V80.3599C82.5767 80.3413 83.1951 80.2 83.6081 79.9229C84.0621 79.6254 84.3386 79.2628 84.4601 78.8332C84.5815 78.4036 84.6376 77.8755 84.6376 77.2488C84.6376 76.1814 84.5386 74.3758 84.3498 71.8226C84.4264 71.6571 84.5815 71.393 84.8039 71.0304L84.9926 70.7105L84.9889 70.705Z" fill="url(#paint7_linear_81_330)"/>
<path d="M91.306 19.546C91.1005 19.9068 90.9491 20.1932 90.8501 20.4033C90.9809 20.4832 91.1005 20.7826 91.1322 21.2977L91.3191 24.1578C91.3564 24.7603 91.4125 25.2772 91.4125 25.7124C91.4125 25.943 91.3807 26.1048 91.3247 26.1847C91.2686 26.2665 91.0743 26.3837 90.7492 26.5269C90.4241 26.6701 89.9682 26.7389 89.3871 26.7389C88.4622 26.7389 87.8998 26.3093 87.8998 25.6454C87.8998 25.4149 87.9876 25.0987 88.1614 24.7064C88.2305 24.5446 88.2623 24.446 88.2623 24.4088C88.2623 24.3772 88.2492 24.3586 88.2193 24.3586C88.1371 24.3586 88.0007 24.5762 87.8138 25.0169C87.6326 25.4576 87.5392 25.863 87.5392 26.2349C87.5392 27.2242 88.1763 27.7152 89.4506 27.7152C89.957 27.7152 90.4129 27.6408 90.8127 27.4846C91.2182 27.3284 91.4928 27.0308 91.6442 26.5827C91.8011 26.1289 91.8759 25.7124 91.8759 25.32C91.8759 25.0894 91.7955 24.6301 91.7638 23.9328C91.676 22.0174 91.633 21.4261 91.633 21.0969C91.633 20.8421 91.7264 20.5874 91.9076 20.3326C91.9581 20.2713 91.9955 20.221 92.0141 20.1894C91.846 20.0834 91.6143 19.8733 91.3079 19.5423L91.306 19.546Z" fill="url(#paint8_linear_81_330)"/>
<path d="M97.1244 24.0667C97.1244 23.7487 96.9805 23.3024 96.6871 22.7296L96.0631 23.5125C96.1883 23.7431 96.3004 23.9848 96.4199 24.234C96.4947 24.3902 96.5377 24.4832 96.5377 24.5204C96.5377 24.6375 96.2069 24.6952 95.5511 24.6952H94.2507C93.9442 24.6952 93.7443 24.6134 93.6509 24.446C93.5575 24.2787 93.5126 24.0425 93.5126 23.7375C93.5126 23.6687 93.5182 23.4642 93.5313 23.122C93.5556 22.5195 93.5687 22.1457 93.5687 21.9895C93.5687 21.0076 93.5126 20.1615 93.4005 19.4586L92.8699 20.1058C93.0081 20.8831 93.0754 21.8835 93.0754 23.1146C93.0754 23.2577 93.0698 23.4437 93.0623 23.6743C93.0567 23.8733 93.0567 24.0164 93.0567 24.1094C93.0567 25.0931 93.408 25.612 94.3385 25.7087V25.7254C94.417 25.7254 94.4917 25.7254 94.5664 25.7254C94.5758 25.7254 94.5851 25.7254 94.5945 25.7254C95.2129 25.7161 95.6464 25.6789 95.8949 25.6064C96.177 25.5264 96.3826 25.4316 96.5078 25.3144C96.6386 25.1954 96.7693 25.0095 96.9132 24.7677C97.0571 24.526 97.1262 24.2898 97.1262 24.0648L97.1244 24.0667Z" fill="url(#paint9_linear_81_330)"/>
<path d="M96.3863 21.3368L95.4876 20.8756L94.9681 21.7589L95.893 22.2684L96.3863 21.3368Z" fill="url(#paint10_linear_81_330)"/>
<path d="M101.011 27.319L101.667 27.9271L102.298 27.2819L101.648 26.6459L101.011 27.319Z" fill="url(#paint11_linear_81_330)"/>
<path d="M102.304 27.2718L102.297 27.2792L102.304 27.2865L102.312 27.2791L102.304 27.2718Z" fill="url(#paint12_linear_81_330)"/>
<path d="M102.311 27.2819L102.967 27.8974L103.599 27.2689L102.954 26.6403L102.311 27.2819Z" fill="url(#paint13_linear_81_330)"/>
<path d="M107.909 21.0449L107.291 20.4163L106.648 21.0263L107.278 21.6715L107.909 21.0449Z" fill="url(#paint14_linear_81_330)"/>
<path d="M107.253 22.2071L106.609 21.5544L105.96 22.2015L106.609 22.8468L107.253 22.2071Z" fill="url(#paint15_linear_81_330)"/>
<path d="M108.991 23.2075C108.978 23.2075 108.967 23.2131 108.954 23.2317L108.378 23.823C108.485 24.141 108.546 24.4014 108.554 24.6134C108.41 24.6822 108.26 24.7194 108.111 24.7194C107.762 24.7194 107.461 24.5892 107.461 24.4144C107.461 24.327 107.498 24.2024 107.573 24.035C107.61 23.9551 107.629 23.9049 107.629 23.8788C107.629 23.8602 107.616 23.8547 107.597 23.8547C107.504 23.8547 107.365 23.9793 107.179 24.234C106.941 24.5576 106.603 24.7194 106.166 24.7194C105.603 24.7194 105.323 24.5446 105.323 24.1968C105.323 24.0797 105.304 24.022 105.273 24.022C105.23 24.022 105.166 24.0722 105.091 24.1782C104.841 24.5204 104.46 24.6952 103.948 24.6952H102.874C102.986 24.4776 103.042 24.2656 103.042 24.0667C103.042 23.7487 102.898 23.3024 102.605 22.7296L101.98 23.5125C102.074 23.7301 102.194 23.9662 102.337 24.234C102.42 24.3902 102.457 24.4832 102.457 24.5204C102.457 24.6375 102.126 24.6952 101.47 24.6952H100.501C100.458 24.1782 100.338 23.7803 100.162 23.4827C99.9495 23.122 99.7122 22.9286 99.4319 22.9286C99.2133 22.9286 99.019 23.1462 98.8377 23.5757C98.6565 24.0053 98.5874 24.4088 98.5948 24.7882C98.6079 25.4223 98.8826 25.7273 99.4562 25.7273H100.118C100.131 25.783 100.136 25.8463 100.136 25.9262C100.136 26.1438 99.9981 26.4172 99.7178 26.7463C99.4431 27.0755 99.0806 27.3562 98.6247 27.5738C98.1688 27.7914 97.513 27.9216 96.6498 27.9662C96.7937 28.141 97.044 28.2712 97.3878 28.3511C97.7316 28.4329 97.9932 28.4757 98.1819 28.4757C98.9125 28.4757 99.4824 28.1466 99.8934 27.4864C100.219 26.9713 100.418 26.38 100.488 25.7273H100.988C101.28 25.718 101.558 25.6826 101.814 25.6082C102.096 25.5283 102.302 25.4279 102.433 25.3107C102.545 25.2047 102.664 25.0504 102.79 24.8384C102.808 25.1564 102.896 25.3795 103.051 25.5097C103.195 25.6324 103.387 25.6956 103.627 25.718V25.7273H104.021C104.365 25.7273 104.727 25.5413 105.108 25.1619C105.252 25.5283 105.583 25.7087 106.114 25.7087C106.407 25.7087 106.695 25.5655 106.982 25.2735C107.121 25.5599 107.377 25.7031 107.758 25.7031C108.115 25.7031 108.451 25.5543 108.77 25.2493C109.09 24.9444 109.251 24.5594 109.251 24.0927C109.251 23.9365 109.226 23.7561 109.17 23.5385C109.114 23.321 109.058 23.2094 108.995 23.2094L108.991 23.2075ZM99.473 24.7138C99.0919 24.7138 98.8975 24.6078 98.8975 24.353C98.8975 24.0481 99.0152 23.8937 99.26 23.8937C99.5048 23.8937 99.8037 24.1857 99.9588 24.7138H99.4712H99.473Z" fill="url(#paint16_linear_81_330)"/>
<path d="M107.261 22.1994L107.253 22.2067L107.261 22.2141L107.268 22.2067L107.261 22.1994Z" fill="url(#paint17_linear_81_330)"/>
<path d="M108.485 22.1755L107.89 21.586L107.266 22.2071L107.872 22.804L108.485 22.1755Z" fill="url(#paint18_linear_81_330)"/>
<path d="M113.453 21.3368L112.552 20.8756L112.035 21.7589L112.958 22.2684L113.453 21.3368Z" fill="url(#paint19_linear_81_330)"/>
<path d="M114.189 24.0667C114.189 23.7487 114.045 23.3024 113.752 22.7296L113.128 23.5125C113.253 23.7431 113.365 23.9848 113.485 24.234C113.559 24.3902 113.602 24.4832 113.602 24.5204C113.602 24.6375 113.272 24.6952 112.616 24.6952H111.315C111.009 24.6952 110.809 24.6134 110.716 24.446C110.622 24.2787 110.577 24.0425 110.577 23.7375C110.577 23.6687 110.583 23.4642 110.596 23.122C110.62 22.5195 110.633 22.1457 110.633 21.9895C110.633 21.0076 110.577 20.1615 110.465 19.4586L109.935 20.1058C110.073 20.8831 110.14 21.8835 110.14 23.1146C110.14 23.2577 110.135 23.4437 110.127 23.6743C110.121 23.8733 110.121 24.0164 110.121 24.1094C110.121 25.0931 110.473 25.612 111.401 25.7087V25.7254C111.48 25.7254 111.555 25.7254 111.629 25.7254C111.639 25.7254 111.648 25.7254 111.657 25.7254C112.276 25.7161 112.709 25.6789 112.958 25.6064C113.24 25.5264 113.445 25.4316 113.571 25.3144C113.701 25.1954 113.832 25.0095 113.976 24.7677C114.12 24.526 114.189 24.2898 114.189 24.0648V24.0667Z" fill="url(#paint20_linear_81_330)"/>
<path d="M120.975 21.3796L120.351 20.7399L119.682 21.3796L120.306 22.0397L120.975 21.3796Z" fill="url(#paint21_linear_81_330)"/>
<path d="M119.677 21.387L119.051 20.7269L118.414 21.3684L119.045 21.9951L119.677 21.387Z" fill="url(#paint22_linear_81_330)"/>
<path d="M123.275 23.5125C123.401 23.7431 123.513 23.9849 123.632 24.234C123.707 24.3902 123.75 24.4832 123.75 24.5204C123.75 24.6376 123.419 24.6952 122.763 24.6952H120.682C120.794 24.4776 120.85 24.2657 120.85 24.0667C120.85 23.7487 120.706 23.3024 120.413 22.7296L119.789 23.5125C119.882 23.7301 120.002 23.9663 120.146 24.234C120.228 24.3902 120.265 24.4832 120.265 24.5204C120.265 24.6376 119.935 24.6952 119.279 24.6952H117.584C117.534 24.2099 117.266 23.6762 116.79 23.109L116.39 23.9793C116.952 24.6822 117.227 25.149 117.222 25.3851C117.216 25.6771 117.115 25.9504 116.915 26.1996C116.721 26.4488 116.371 26.685 115.878 26.9081C115.385 27.1313 114.791 27.2559 114.097 27.2819C113.815 27.2949 113.673 27.3135 113.673 27.3433C113.673 27.3619 113.711 27.3935 113.791 27.4362L114.503 27.8286C114.727 27.9532 114.916 28.0146 115.06 28.0146C115.822 28.0146 116.427 27.7356 116.878 27.1815C117.315 26.6534 117.552 25.9374 117.584 25.0244C117.691 25.2233 117.816 25.3795 117.947 25.4837C118.128 25.6306 118.288 25.7068 118.429 25.7198V25.7254H118.784C119.081 25.718 119.363 25.6827 119.621 25.6064C119.903 25.5265 120.108 25.426 120.239 25.3089C120.351 25.2029 120.471 25.0485 120.596 24.8365C120.615 25.1545 120.702 25.3777 120.858 25.5079C121.024 25.651 121.257 25.7124 121.551 25.7217V25.7254C121.573 25.7254 121.594 25.7254 121.618 25.7254C121.622 25.7254 121.624 25.7254 121.626 25.7254H121.812C122.427 25.7161 122.859 25.6789 123.105 25.6064C123.387 25.5265 123.593 25.4316 123.718 25.3145C123.849 25.1954 123.98 25.0095 124.124 24.7677C124.268 24.526 124.337 24.2898 124.337 24.0648C124.337 23.7468 124.193 23.3005 123.899 22.7278L123.275 23.5107V23.5125Z" fill="url(#paint23_linear_81_330)"/>
<path d="M123.6 21.3368L122.7 20.8756L122.182 21.7589L123.105 22.2684L123.6 21.3368Z" fill="url(#paint24_linear_81_330)"/>
<path d="M125.25 25.7329C125.581 25.2977 125.744 24.6878 125.744 23.9049C125.744 23.7431 125.738 23.3823 125.719 22.8226C125.695 21.9839 125.682 21.387 125.682 21.0263C125.682 20.9946 125.682 20.9017 125.687 20.7399C125.701 20.249 125.706 19.8826 125.706 19.6446L125.245 20.2787C125.101 20.4777 125.026 20.7957 125.032 21.2364C125.032 21.361 125.037 21.6343 125.069 22.0565C125.17 23.3303 125.232 24.5557 125.25 25.731V25.7329Z" fill="url(#paint25_linear_81_330)"/>
<path d="M126.493 26.8263C126.474 26.8263 126.437 26.8318 126.381 26.8504C126.087 26.9508 125.912 26.9992 125.843 27.0066C125.712 27.0122 125.568 26.9936 125.4 26.9453C125.237 26.9025 125.138 26.8263 125.106 26.7277C125.138 26.5901 125.269 26.5101 125.488 26.4915C125.613 26.486 125.757 26.5473 125.912 26.6849L126.13 26.2684C125.968 26.1122 125.768 26.0378 125.536 26.0564C125.142 26.088 124.923 26.2981 124.779 26.9211C124.779 27.0885 124.918 27.2391 125.198 27.3693C125.091 27.425 124.979 27.518 124.873 27.637C124.766 27.7616 124.71 27.836 124.71 27.8676C124.71 27.8862 124.729 27.8992 124.761 27.8918C124.793 27.8862 124.974 27.7988 125.304 27.6426C125.643 27.4808 126.003 27.3562 126.386 27.2633C126.493 27.0215 126.543 26.8839 126.543 26.8653C126.543 26.8337 126.525 26.8225 126.493 26.8281V26.8263Z" fill="url(#paint26_linear_81_330)"/>
<path d="M167.836 8.15426L142.278 19.9068C142.208 19.9291 142.158 19.9886 142.149 20.0611C142.145 20.0965 142.149 20.13 142.162 20.1634C142.167 20.1802 142.177 20.195 142.19 20.2081C142.207 20.2248 142.268 20.2211 142.382 20.1839L169.243 11.7544C169.951 11.4122 170.546 10.8767 170.958 10.211C171.259 9.8409 171.386 9.36113 171.306 8.89065C171.048 8.48898 170.628 8.21748 170.153 8.14682C169.395 7.92925 168.591 7.93111 167.834 8.15426H167.84H167.836ZM159.867 9.18633L154.305 11.7451L146.721 0.821934L148.853 0L159.867 9.18633ZM144.697 21.9616L145.021 25.7273L145.155 25.6808L146.794 21.3052L144.697 21.9635V21.9616ZM156.801 18.1607L162.653 16.3234L160.717 30.5176L158.584 31.3395L156.805 18.1607H156.801ZM152.53 32.8513L152.541 32.8365C152.517 32.8625 152.498 32.8792 152.53 32.8513ZM149.867 32.3641C150.574 32.3102 151.284 32.3976 151.954 32.6245C152.156 32.6914 152.364 32.7398 152.575 32.7714C152.629 32.6431 152.715 32.3883 152.805 32.1094C152.917 31.7523 153.047 31.4009 153.197 31.0587C153.429 30.5455 153.729 30.0675 154.092 29.6361C154.451 29.2084 154.871 28.8365 155.34 28.5315C155.48 28.4423 155.617 28.3623 155.751 28.2879L155.521 26.5883C153.363 28.2303 151.459 30.1773 149.867 32.3678V32.3623V32.3641ZM164.077 23.6185C165.101 23.5441 166.132 23.5758 167.149 23.7134C167.795 23.7784 168.44 23.8435 168.997 23.8454L168.924 23.8138C168.029 23.5311 167.251 22.9621 166.715 22.1959C166.596 21.9933 166.497 21.7775 166.42 21.5544C165.697 21.7106 164.983 21.8947 164.284 22.1067L164.084 23.6167H164.077V23.6185ZM160.693 68.1722L160.876 68.3637L160.867 67.9546C160.856 67.5883 160.863 67.2201 160.893 66.8538C160.932 66.3944 161.029 65.9426 161.181 65.5056C161.345 65.0481 161.558 64.6111 161.816 64.1983C162.085 63.7613 162.393 63.3485 162.734 62.9654C162.926 62.7441 163.098 62.5749 163.264 62.4094C163.576 62.1248 163.847 61.7976 164.064 61.4368C164.262 61.0017 164.423 60.5498 164.544 60.0867C164.656 59.7167 164.765 59.3559 164.899 59.0119C165.069 58.5563 165.314 58.1323 165.62 57.7567C165.929 57.3922 166.297 57.0835 166.708 56.8399C166.954 56.6893 167.218 56.5535 167.496 56.4066C167.965 56.1853 168.408 55.912 168.815 55.5921C169.062 55.369 169.275 55.1105 169.449 54.8279C169.658 54.4894 169.826 54.1287 169.95 53.7512C170.045 53.4555 170.114 53.1784 170.179 52.9125C170.291 52.323 170.493 51.7521 170.781 51.224C171.013 50.8595 171.291 50.5229 171.607 50.2273C171.812 50.0394 171.994 49.8256 172.145 49.5913C172.248 49.396 172.304 49.1822 172.309 48.9609C172.321 48.7972 172.291 48.6317 172.22 48.483V48.4774C172.117 48.3268 171.975 48.204 171.812 48.1222C171.435 47.9195 171.039 47.754 170.63 47.6238C170.207 47.4769 169.639 47.3021 169.079 47.1273C168.406 46.9191 167.735 46.7108 167.177 46.5062C166.67 46.3314 166.185 46.1027 165.729 45.8238C165.28 45.5467 164.895 45.1785 164.602 44.7396C164.352 44.338 164.148 43.9103 163.995 43.464C163.916 43.2371 163.819 43.0158 163.701 42.8057C163.664 42.7462 163.61 42.6978 163.546 42.6643C163.376 42.59 163.195 42.5453 163.01 42.5305C162.818 42.5063 162.522 42.4858 162.227 42.4691C161.644 42.4542 161.065 42.3761 160.499 42.2366C159.89 42.0488 159.346 41.6955 158.927 41.2157L158.709 40.9907H158.703C158.529 40.8327 158.343 40.6913 158.141 40.5705C157.556 40.2209 156.9 40.0051 156.22 39.9382C155.917 39.9084 155.613 39.927 155.316 39.994C154.987 40.0814 154.673 40.219 154.387 40.4031C154.101 40.5779 153.847 40.7992 153.632 41.0539C153.46 41.3069 153.346 41.5932 153.3 41.8963C153.26 42.0581 153.223 42.2236 153.184 42.3575C153.075 42.7257 152.939 43.0827 152.776 43.4305C152.625 43.7559 152.44 44.1241 152.231 44.5351L152.218 44.5593C151.79 45.2919 151.497 46.0953 151.355 46.9302C151.321 47.3561 151.349 47.7838 151.439 48.2022C151.547 48.7247 151.711 49.2342 151.932 49.7215C152.141 50.1938 152.39 50.6475 152.674 51.0789C152.924 51.4602 153.212 51.8172 153.529 52.1445C153.784 52.3881 154.058 52.6094 154.348 52.8065C154.669 53.0222 154.97 53.2677 155.245 53.541C155.603 53.9129 155.893 54.3444 156.1 54.8148C156.356 55.3932 156.551 55.9957 156.683 56.6131C156.85 57.3383 156.997 58.1825 157.152 59.0919C157.304 59.9659 157.463 60.8994 157.642 61.7418C157.814 62.5935 158.04 63.434 158.318 64.2578C158.58 65.0276 158.929 65.764 159.357 66.4558C159.75 67.0676 160.2 67.6385 160.701 68.1648L160.691 68.1703L160.693 68.1722ZM160.826 71.3967C160.131 70.9541 159.497 70.4204 158.946 69.8086C158.339 69.1671 157.795 68.4679 157.321 67.724C156.799 66.8817 156.375 65.9853 156.056 65.0481C155.742 64.1258 155.488 63.1867 155.295 62.2327C155.093 61.2769 154.935 60.3564 154.787 59.4991C154.634 58.6065 154.492 57.779 154.346 57.1505C154.251 56.6912 154.109 56.243 153.924 55.8134C153.827 55.5921 153.694 55.3895 153.528 55.2128C153.348 55.0473 153.156 54.8948 152.952 54.7591C152.552 54.4876 152.179 54.1807 151.831 53.8441C151.401 53.4034 151.015 52.9199 150.678 52.4048V52.3992C150.318 51.8562 150.004 51.2872 149.737 50.694C149.445 50.045 149.226 49.3663 149.084 48.6708C148.952 48.0274 148.914 47.3691 148.972 46.7164C149.131 45.5802 149.507 44.4867 150.082 43.4937L150.095 43.4695C150.288 43.0995 150.452 42.7685 150.596 42.4542C150.708 42.2162 150.805 41.9689 150.884 41.7178C150.921 41.5839 150.945 41.4817 150.97 41.3794C151.08 40.7322 151.349 40.1223 151.754 39.6035C152.53 38.6718 153.578 38.0042 154.753 37.6918C155.305 37.5598 155.873 37.5189 156.437 37.571C157.027 37.6267 157.608 37.7588 158.165 37.9652C158.595 38.1177 159.006 38.3129 159.396 38.5491C159.731 38.7518 160.045 38.9861 160.334 39.2502C160.484 39.3859 160.557 39.4603 160.63 39.531C160.783 39.7132 160.977 39.8582 161.196 39.9531C161.588 40.0368 161.988 40.0832 162.388 40.0925C162.689 40.1111 162.988 40.1297 163.32 40.1725C163.776 40.219 164.223 40.3436 164.636 40.5407C165.086 40.7639 165.465 41.1079 165.732 41.5337H165.738C165.944 41.8815 166.114 42.2497 166.244 42.6309C166.34 42.9117 166.459 43.1813 166.607 43.4398C166.715 43.5941 166.857 43.7243 167.02 43.8229C167.334 44.0051 167.664 44.1557 168.008 44.2729C168.524 44.4644 169.161 44.656 169.798 44.8568C170.331 45.0204 170.865 45.1859 171.424 45.3812C171.981 45.5616 172.517 45.794 173.029 46.0767C174.129 46.6457 174.791 47.8061 174.714 49.039C174.695 49.634 174.538 50.218 174.258 50.7442C174.008 51.1775 173.692 51.5717 173.326 51.912C173.146 52.0775 172.986 52.2616 172.846 52.4606C172.692 52.7842 172.582 53.1263 172.517 53.4797V53.4852C172.436 53.8162 172.352 54.164 172.24 54.5024C172.057 55.0622 171.807 55.5996 171.495 56.1017C171.198 56.5814 170.833 57.0166 170.411 57.3922C169.862 57.8478 169.258 58.2327 168.615 58.5396C168.382 58.6604 168.158 58.7757 167.976 58.8892C167.79 58.9989 167.621 59.1384 167.481 59.3001C167.339 59.4805 167.225 59.6832 167.147 59.9008C167.052 60.1407 166.954 60.4605 166.859 60.7878C166.697 61.3978 166.474 61.991 166.198 62.5581C165.878 63.1327 165.469 63.6534 164.983 64.0997C164.826 64.2578 164.664 64.4214 164.538 64.5628C164.292 64.8417 164.069 65.1429 163.875 65.4609C163.707 65.7287 163.567 66.0132 163.457 66.3089C163.371 66.5599 163.315 66.8203 163.292 67.0862C163.272 67.3689 163.266 67.6515 163.275 67.9342L163.322 69.6617C163.371 70.1099 163.29 70.5636 163.094 70.9709C162.653 71.7519 161.977 72.0569 160.839 71.4135L160.83 71.4004L160.826 71.3967ZM185.678 24.3345C185.643 24.3568 185.607 24.3828 185.575 24.4107C185.508 24.4795 185.452 24.5558 185.409 24.6413C185.31 24.8012 185.234 24.9742 185.181 25.1527C185.151 25.2643 185.151 25.3814 185.181 25.493C185.286 25.863 185.443 26.2164 185.646 26.5436C186.414 27.8491 186.517 28.0183 184.327 30.9248C184.131 31.1759 183.92 31.412 183.694 31.6352C183.464 31.8379 183.27 32.0759 183.118 32.3418C183.107 32.3734 183.174 32.8532 183.229 33.4892C183.333 34.4134 183.363 35.345 183.315 36.273C183.279 36.5259 183.275 36.7825 183.303 37.0373C183.346 37.2939 183.449 37.5375 183.6 37.7495C184.303 38.6774 185.168 39.4696 186.153 40.0925C186.895 40.6393 187.756 41.0037 188.666 41.1562C189.269 41.1376 189.867 41.0595 190.456 40.9238C191.874 40.6616 193.3 40.3975 194.148 41.1209C194.503 41.4407 194.794 41.822 195.006 42.2497C195.224 42.6811 195.387 43.1404 195.486 43.6146C195.562 44.0051 195.617 44.4012 195.65 44.7973C195.682 45.2733 195.764 45.7457 195.895 46.2031C196.009 46.5044 196.145 46.7982 196.302 47.079C196.654 47.6666 196.893 48.3156 197.007 48.9906C197.057 49.9037 196.906 50.8186 196.562 51.6666C196.48 51.9232 196.394 52.191 196.327 52.4309C196.046 53.5057 195.822 54.5936 195.654 55.6907C195.445 57.117 195.127 58.5247 194.705 59.9026C194.475 60.626 194.32 61.3699 194.243 62.1248C194.18 62.5042 194.183 62.8929 194.256 63.2722C194.387 63.5735 194.641 64.0681 194.899 64.546C203.789 52.1333 200.886 34.8969 188.414 26.0471C187.537 25.426 186.626 24.8551 185.682 24.3382L185.678 24.3326V24.3345ZM193.307 66.5544C192.868 67.0583 192.412 67.5474 191.938 68.0216C181.106 78.7904 163.554 78.7793 152.734 67.9993C144.144 59.4396 142.158 46.311 147.836 35.6147C148.124 35.4938 148.399 35.3748 148.651 35.2595C149.43 34.7741 150.381 34.6458 151.263 34.9062C151.654 35.0345 152.059 35.1163 152.468 35.1498C153.083 35.2111 153.694 35.014 154.154 34.6049C154.615 34.1084 154.936 33.5003 155.086 32.8402C155.181 32.5538 155.278 32.2544 155.383 32.022C155.521 31.7114 155.704 31.4213 155.923 31.1628C155.983 31.0922 156.044 31.0234 156.11 30.9583L156.405 33.1563C156.418 33.2493 156.442 33.3404 156.476 33.4278C156.713 34.0415 157.407 34.3483 158.023 34.1103L162.197 32.5036C162.625 32.3567 162.935 31.9829 162.997 31.5366L163.739 26.1048C163.896 26.0676 164.062 26.0378 164.232 26.0099C165.129 25.9374 166.029 25.9653 166.921 26.0936C168.206 26.3186 169.525 26.2852 170.798 25.9988C170.949 25.9504 171.097 25.8891 171.237 25.8147L171.242 25.8091C171.654 25.599 171.975 25.2475 172.143 24.8198C172.293 24.4237 172.3 23.9867 172.162 23.5869C172.121 23.4605 172.066 23.3396 172.003 23.2243C171.51 22.4581 170.757 21.8928 169.88 21.6306C169.546 21.506 169.228 21.3405 168.933 21.1378C170.063 21.004 171.201 20.9389 172.339 20.9407C176.164 20.9352 179.948 21.7218 183.451 23.2466C183.406 23.3173 183.363 23.3861 183.324 23.4586C183.113 23.8119 182.954 24.1913 182.851 24.5874C182.719 25.1043 182.728 25.6492 182.877 26.1624C183.034 26.7222 183.27 27.2559 183.576 27.7524C183.632 27.8472 183.64 27.8602 182.408 29.4967C182.272 29.6622 182.126 29.8221 181.973 29.9746C181.469 30.4209 181.076 30.9787 180.83 31.6054C180.719 32.2972 180.719 33.002 180.83 33.6937C180.919 34.4729 180.951 35.2558 180.925 36.0387C180.865 36.4868 180.865 36.9424 180.925 37.3906C181.02 38.0005 181.252 38.5788 181.607 39.0847C182.491 40.2729 183.586 41.292 184.836 42.0916C185.925 42.8708 187.192 43.371 188.522 43.5495C189.32 43.5495 190.116 43.4584 190.893 43.2799C191.751 43.1218 192.575 42.9284 192.593 42.9451C192.713 43.0623 192.81 43.2018 192.881 43.3524C193.004 43.5941 193.094 43.8508 193.15 44.1167C193.208 44.4254 193.251 44.7359 193.277 45.0465C193.318 46.1492 193.629 47.224 194.183 48.178C194.391 48.5202 194.544 48.8939 194.636 49.2844C194.619 49.8553 194.499 50.4188 194.282 50.9488V50.9544C194.202 51.2128 194.116 51.4806 194.028 51.7912C193.722 52.946 193.477 54.1138 193.296 55.2946C193.103 56.6056 192.816 57.9017 192.433 59.17C192.151 60.0607 191.96 60.9775 191.868 61.9073C191.753 62.6827 191.818 63.4749 192.061 64.2206C192.39 64.9328 192.754 65.6264 193.154 66.3015C193.206 66.3907 193.262 66.48 193.316 66.5655H193.305L193.307 66.5544ZM179.015 11.6224C178.199 11.4773 177.382 11.362 176.56 11.2672L176.293 13.6456C177.066 13.7349 177.829 13.8427 178.597 13.9785L179.017 11.6224H179.015ZM183.838 12.8144C183.051 12.5615 182.248 12.3365 181.444 12.1375L180.869 14.462C181.618 14.6535 182.367 14.858 183.102 15.0942L183.834 12.8144H183.838ZM188.455 14.6293C187.705 14.276 186.945 13.9469 186.173 13.6437L185.297 15.8734C186.016 16.1579 186.726 16.4647 187.427 16.7939L188.453 14.6293H188.455ZM192.791 17.0375C192.094 16.5893 191.39 16.1672 190.667 15.7637L189.495 17.8557C190.176 18.2388 190.839 18.6311 191.491 19.0514L192.791 17.0375ZM196.775 19.9905C196.143 19.4568 195.495 18.9417 194.832 18.4489L193.401 20.3717C194.023 20.8329 194.626 21.3145 195.217 21.8147L196.775 19.9905ZM200.327 23.4307L198.548 25.0411C198.023 24.4684 197.492 23.9142 196.932 23.3693L198.608 21.6492C199.2 22.222 199.77 22.8133 200.325 23.427V23.4307H200.327ZM203.399 27.3098L201.42 28.671C200.979 28.0369 200.523 27.4139 200.043 26.8077L201.924 25.3182C202.438 25.9616 202.928 26.631 203.399 27.3079V27.3098ZM205.936 31.5627C205.551 30.8263 205.163 30.1085 204.738 29.3962L202.672 30.6217C203.068 31.2912 203.44 31.9587 203.791 32.6468L205.936 31.5627ZM207.887 36.1056C207.616 35.3302 207.311 34.5547 206.986 33.7997L204.778 34.7481C205.08 35.4529 205.364 36.1818 205.618 36.9034L207.887 36.1075V36.1056ZM209.215 40.8699C209.053 40.0665 208.853 39.252 208.63 38.4617L206.317 39.1125C206.526 39.8434 206.711 40.6114 206.863 41.3571L209.217 40.868L209.215 40.8699ZM209.899 45.7587C209.837 44.9386 209.755 44.1167 209.637 43.3022L207.257 43.6406C207.367 44.4049 207.444 45.1748 207.502 45.9428L209.903 45.7587H209.899ZM209.936 50.7014C209.979 49.8758 210.006 49.0557 209.998 48.2282L207.597 48.2561C207.606 49.0278 207.578 49.7958 207.539 50.5657L209.94 50.7014H209.936ZM209.327 55.5996C209.481 54.7869 209.609 53.9817 209.712 53.1617L207.324 52.8753C207.229 53.6396 207.106 54.4039 206.962 55.1682L209.327 55.6033V55.5996ZM208.072 60.3917C208.335 59.6088 208.569 58.8185 208.78 58.0208L206.45 57.4238C206.257 58.1677 206.035 58.9096 205.788 59.6386L208.07 60.3917H208.072ZM206.194 64.9607C206.556 64.2169 206.889 63.4749 207.208 62.7106L204.987 61.8031C204.69 62.5209 204.374 63.2201 204.032 63.9193L206.2 64.9588H206.194V64.9607ZM203.72 69.247C204.178 68.5609 204.615 67.8598 205.028 67.1457L202.935 65.9649C202.558 66.6343 202.139 67.2926 201.713 67.9323L203.72 69.2489V69.247ZM200.706 73.1726C201.25 72.5515 201.777 71.9155 202.278 71.261L200.357 69.8161C199.886 70.4297 199.396 71.0248 198.884 71.6068L200.703 73.1726H200.706ZM197.203 76.6723C197.823 76.1275 198.429 75.564 199.012 74.9801L197.304 73.2972C196.758 73.8439 196.19 74.372 195.609 74.8816L197.207 76.6705H197.203V76.6723ZM193.266 79.6849C193.952 79.2274 194.63 78.7458 195.282 78.2437L193.81 76.3488C193.199 76.8193 192.562 77.2693 191.921 77.6988L193.264 79.683V79.6867L193.266 79.6849ZM188.967 82.1581C189.707 81.7955 190.445 81.4068 191.158 80.9921L189.948 78.928C189.277 79.3111 188.593 79.6718 187.896 80.014L188.967 82.1581ZM184.374 84.0456C185.155 83.7871 185.944 83.4914 186.702 83.1772L185.783 80.9661C185.071 81.2581 184.342 81.5389 183.608 81.7769L184.376 84.0437L184.374 84.0456ZM179.574 85.3082C180.389 85.152 181.196 84.9661 181.997 84.7541L181.37 82.4445C180.654 82.6528 179.839 82.8183 179.105 82.9596L179.572 85.3082H179.574ZM174.647 85.9312C175.473 85.8828 176.297 85.8047 177.117 85.7025L176.816 83.3259C176.048 83.4208 175.275 83.4951 174.497 83.5416L174.649 85.9312H174.645H174.647ZM169.69 85.9107C170.518 85.9665 171.338 85.9963 172.169 86.0019V83.6123C171.394 83.6123 170.617 83.577 169.841 83.5268L169.69 85.9163V85.9126V85.9107ZM164.768 85.2413C165.583 85.4049 166.39 85.5407 167.214 85.6541L167.541 83.2831C166.773 83.1771 166.005 83.047 165.245 82.8945L164.778 85.2431H164.77L164.768 85.2413ZM159.976 83.9321C160.76 84.2018 161.549 84.4454 162.35 84.6667L162.978 82.3552C162.231 82.1507 161.493 81.9238 160.76 81.6709L159.976 83.934V83.9321ZM155.407 82.0075C156.151 82.3757 156.893 82.7197 157.655 83.0451L158.593 80.8397C157.874 80.5347 157.177 80.2111 156.482 79.8634L155.411 82.0075H155.407ZM151.134 79.5026C151.816 79.9657 152.517 80.4138 153.231 80.8285L154.441 78.7607C153.769 78.3627 153.122 77.9555 152.479 77.5184L151.136 79.5008H151.134V79.5026ZM147.225 76.4492C147.846 76.9996 148.473 77.5259 149.129 78.0373L150.603 76.1461C149.992 75.6682 149.4 75.1717 148.821 74.6584L147.223 76.4473L147.225 76.4492ZM143.752 72.9197C144.292 73.5445 144.85 74.1563 145.432 74.7421L147.143 73.0592C146.599 72.5087 146.078 71.9379 145.572 71.3539L143.754 72.9197H143.752ZM140.775 68.9681C141.226 69.6543 141.7 70.3386 142.199 70.9932L144.12 69.5483C143.655 68.9291 143.212 68.3005 142.786 67.6534L140.774 68.97H140.775V68.9681ZM138.341 64.6595C138.698 65.4033 139.079 66.136 139.486 66.8575L141.579 65.6766C141.194 65.0072 140.841 64.3154 140.508 63.6237L138.341 64.6632V64.6595ZM136.498 60.0663C136.751 60.8492 137.037 61.6283 137.341 62.3926L139.574 61.5019C139.286 60.786 139.023 60.0607 138.785 59.3262L136.498 60.0644V60.0663ZM135.288 55.2742C135.433 56.0756 135.607 56.9069 135.815 57.6953L138.145 57.0965C137.952 56.3583 137.79 55.5903 137.653 54.839L135.288 55.2742ZM134.722 50.3667C134.761 51.1831 134.824 52.0236 134.923 52.8344L137.309 52.548C137.223 51.7837 137.158 51.0194 137.117 50.2459L134.716 50.3686H134.72L134.722 50.3667ZM134.8 45.4277C134.735 46.2515 134.694 47.0678 134.679 47.8935L137.08 47.9325C137.095 47.1571 137.132 46.3928 137.194 45.6174L134.793 45.4258H134.8V45.4277ZM135.529 40.5388C135.357 41.3496 135.205 42.153 135.084 42.973L137.463 43.3189C137.582 42.5546 137.719 41.8052 137.881 41.0447L135.531 40.5407L135.529 40.5388ZM136.902 35.7876C136.622 36.5686 136.37 37.3459 136.134 38.1418L138.449 38.7946C138.67 38.0507 138.905 37.3255 139.167 36.5965L136.902 35.7876ZM138.896 31.2614C138.548 32.0089 138.16 32.723 137.825 33.491L140.034 34.4469C140.348 33.7291 140.712 33.0596 141.035 32.3604L138.901 31.2595L138.896 31.2633V31.2614ZM142.778 17.0431L140.482 14.0528L140.613 13.9989L144.766 16.13L142.778 17.0449V17.0431Z" fill="url(#paint27_linear_81_330)"/>
</g>
<defs>
<linearGradient id="paint0_linear_81_330" x1="1.0332" y1="71.6571" x2="3.21183" y2="71.6571" gradientUnits="userSpaceOnUse">
<stop offset="0.02" stop-color="#F4EA98"/>
<stop offset="1" stop-color="#95642A"/>
</linearGradient>
<linearGradient id="paint1_linear_81_330" x1="3.23413" y1="71.5139" x2="5.40154" y2="71.5139" gradientUnits="userSpaceOnUse">
<stop offset="0.02" stop-color="#F4EA98"/>
<stop offset="1" stop-color="#95642A"/>
</linearGradient>
<linearGradient id="paint2_linear_81_330" x1="3.2122" y1="71.584" x2="3.235" y2="71.584" gradientUnits="userSpaceOnUse">
<stop offset="0.02" stop-color="#F4EA98"/>
<stop offset="1" stop-color="#95642A"/>
</linearGradient>
<linearGradient id="paint3_linear_81_330" x1="1.50592" y1="76.5645" x2="17.7092" y2="76.5645" gradientUnits="userSpaceOnUse">
<stop offset="0.02" stop-color="#F4EA98"/>
<stop offset="1" stop-color="#95642A"/>
</linearGradient>
<linearGradient id="paint4_linear_81_330" x1="28.677" y1="83.086" x2="30.9547" y2="83.086" gradientUnits="userSpaceOnUse">
<stop offset="0.02" stop-color="#F4EA98"/>
<stop offset="1" stop-color="#95642A"/>
</linearGradient>
<linearGradient id="paint5_linear_81_330" x1="28.6533" y1="83.1089" x2="28.6761" y2="83.1089" gradientUnits="userSpaceOnUse">
<stop offset="0.02" stop-color="#F4EA98"/>
<stop offset="1" stop-color="#95642A"/>
</linearGradient>
<linearGradient id="paint6_linear_81_330" x1="26.377" y1="83.1195" x2="28.6546" y2="83.1195" gradientUnits="userSpaceOnUse">
<stop offset="0.02" stop-color="#F4EA98"/>
<stop offset="1" stop-color="#95642A"/>
</linearGradient>
<linearGradient id="paint7_linear_81_330" x1="18.9238" y1="74.8109" x2="84.9889" y2="74.8109" gradientUnits="userSpaceOnUse">
<stop offset="0.02" stop-color="#F4EA98"/>
<stop offset="1" stop-color="#95642A"/>
</linearGradient>
<linearGradient id="paint8_linear_81_330" x1="87.5392" y1="23.6315" x2="92.0123" y2="23.6315" gradientUnits="userSpaceOnUse">
<stop stop-color="#F4EA98"/>
<stop offset="1" stop-color="#95642A"/>
</linearGradient>
<linearGradient id="paint9_linear_81_330" x1="92.8699" y1="22.592" x2="97.1244" y2="22.592" gradientUnits="userSpaceOnUse">
<stop stop-color="#F4EA98"/>
<stop offset="1" stop-color="#95642A"/>
</linearGradient>
<linearGradient id="paint10_linear_81_330" x1="94.9681" y1="21.573" x2="96.3863" y2="21.573" gradientUnits="userSpaceOnUse">
<stop stop-color="#F4EA98"/>
<stop offset="1" stop-color="#95642A"/>
</linearGradient>
<linearGradient id="paint11_linear_81_330" x1="101.011" y1="27.2874" x2="102.298" y2="27.2874" gradientUnits="userSpaceOnUse">
<stop stop-color="#F4EA98"/>
<stop offset="1" stop-color="#95642A"/>
</linearGradient>
<linearGradient id="paint12_linear_81_330" x1="102.297" y1="27.281" x2="102.312" y2="27.281" gradientUnits="userSpaceOnUse">
<stop stop-color="#F4EA98"/>
<stop offset="1" stop-color="#95642A"/>
</linearGradient>
<linearGradient id="paint13_linear_81_330" x1="102.311" y1="27.2689" x2="103.599" y2="27.2689" gradientUnits="userSpaceOnUse">
<stop stop-color="#F4EA98"/>
<stop offset="1" stop-color="#95642A"/>
</linearGradient>
<linearGradient id="paint14_linear_81_330" x1="106.648" y1="21.0449" x2="107.909" y2="21.0449" gradientUnits="userSpaceOnUse">
<stop stop-color="#F4EA98"/>
<stop offset="1" stop-color="#95642A"/>
</linearGradient>
<linearGradient id="paint15_linear_81_330" x1="105.96" y1="22.2015" x2="107.253" y2="22.2015" gradientUnits="userSpaceOnUse">
<stop stop-color="#F4EA98"/>
<stop offset="1" stop-color="#95642A"/>
</linearGradient>
<linearGradient id="paint16_linear_81_330" x1="96.6498" y1="25.6027" x2="109.247" y2="25.6027" gradientUnits="userSpaceOnUse">
<stop stop-color="#F4EA98"/>
<stop offset="1" stop-color="#95642A"/>
</linearGradient>
<linearGradient id="paint17_linear_81_330" x1="107.253" y1="22.206" x2="107.267" y2="22.206" gradientUnits="userSpaceOnUse">
<stop stop-color="#F4EA98"/>
<stop offset="1" stop-color="#95642A"/>
</linearGradient>
<linearGradient id="paint18_linear_81_330" x1="107.266" y1="22.1941" x2="108.485" y2="22.1941" gradientUnits="userSpaceOnUse">
<stop stop-color="#F4EA98"/>
<stop offset="1" stop-color="#95642A"/>
</linearGradient>
<linearGradient id="paint19_linear_81_330" x1="112.035" y1="21.573" x2="113.453" y2="21.573" gradientUnits="userSpaceOnUse">
<stop stop-color="#F4EA98"/>
<stop offset="1" stop-color="#95642A"/>
</linearGradient>
<linearGradient id="paint20_linear_81_330" x1="109.935" y1="22.592" x2="114.189" y2="22.592" gradientUnits="userSpaceOnUse">
<stop stop-color="#F4EA98"/>
<stop offset="1" stop-color="#95642A"/>
</linearGradient>
<linearGradient id="paint21_linear_81_330" x1="119.682" y1="21.3889" x2="120.975" y2="21.3889" gradientUnits="userSpaceOnUse">
<stop stop-color="#F4EA98"/>
<stop offset="1" stop-color="#95642A"/>
</linearGradient>
<linearGradient id="paint22_linear_81_330" x1="118.414" y1="21.361" x2="119.677" y2="21.361" gradientUnits="userSpaceOnUse">
<stop stop-color="#F4EA98"/>
<stop offset="1" stop-color="#95642A"/>
</linearGradient>
<linearGradient id="paint23_linear_81_330" x1="113.671" y1="25.3721" x2="124.337" y2="25.3721" gradientUnits="userSpaceOnUse">
<stop stop-color="#F4EA98"/>
<stop offset="1" stop-color="#95642A"/>
</linearGradient>
<linearGradient id="paint24_linear_81_330" x1="122.182" y1="21.573" x2="123.6" y2="21.573" gradientUnits="userSpaceOnUse">
<stop stop-color="#F4EA98"/>
<stop offset="1" stop-color="#95642A"/>
</linearGradient>
<linearGradient id="paint25_linear_81_330" x1="125.03" y1="22.6887" x2="125.744" y2="22.6887" gradientUnits="userSpaceOnUse">
<stop stop-color="#F4EA98"/>
<stop offset="1" stop-color="#95642A"/>
</linearGradient>
<linearGradient id="paint26_linear_81_330" x1="124.712" y1="26.9732" x2="126.543" y2="26.9732" gradientUnits="userSpaceOnUse">
<stop stop-color="#F4EA98"/>
<stop offset="1" stop-color="#95642A"/>
</linearGradient>
<linearGradient id="paint27_linear_81_330" x1="134.68" y1="43.0009" x2="210" y2="43.0009" gradientUnits="userSpaceOnUse">
<stop stop-color="#95642A"/>
<stop offset="0.5" stop-color="#F4EA98"/>
<stop offset="1" stop-color="#95642A"/>
</linearGradient>
<clipPath id="clip0_81_330">
<rect width="210" height="86" fill="white"/>
</clipPath>
</defs>
</svg>
