<svg width="49" height="48" viewBox="0 0 49 48" fill="none" xmlns="http://www.w3.org/2000/svg">
<path d="M39.418 5.8927H35.7925V4.47327C35.7921 4.08272 35.6368 3.70828 35.3607 3.43208C35.0845 3.15589 34.7101 3.0005 34.3196 3H31.4265C31.036 3.00049 30.6616 3.15588 30.3854 3.43208C30.1093 3.70827 29.954 4.08272 29.9536 4.47327V5.8927H19.0896V4.47327C19.089 4.08264 18.9336 3.70818 18.6573 3.432C18.3811 3.15582 18.0066 3.00046 17.616 3H14.7229C14.3323 3.00049 13.9579 3.15588 13.6818 3.43208C13.4057 3.70827 13.2504 4.08272 13.25 4.47327V5.8927H9.58203C8.38896 5.894 7.24512 6.36852 6.40149 7.21216C5.55786 8.05579 5.08333 9.19962 5.08203 10.3927V40.5C5.08333 41.6931 5.55786 42.8369 6.40149 43.6805C7.24512 44.5242 8.38896 44.9987 9.58203 45H39.418C40.611 44.9987 41.7549 44.5242 42.5985 43.6805C43.4421 42.8369 43.9167 41.6931 43.918 40.5V10.3927C43.9167 9.19962 43.4421 8.05579 42.5985 7.21216C41.7549 6.36852 40.611 5.894 39.418 5.8927ZM42.418 40.5C42.4171 41.2954 42.1008 42.058 41.5383 42.6204C40.9759 43.1828 40.2134 43.4992 39.418 43.5H9.58203C8.97149 43.4984 8.37602 43.3103 7.87531 42.961C7.3746 42.6116 6.99256 42.1176 6.78033 41.5452H33.8604C34.4206 41.5455 34.9586 41.3262 35.3589 40.9343L42.418 34.04V40.5ZM35.1772 39.0151V33.6478C35.1774 33.4788 35.2445 33.3168 35.364 33.1972C35.4834 33.0777 35.6455 33.0105 35.8145 33.0103H41.3262L35.1772 39.0151ZM42.418 31.5103H35.8145C35.2478 31.5109 34.7045 31.7363 34.3038 32.1371C33.9031 32.5378 33.6778 33.0811 33.6772 33.6478V40.0452H6.58203V14.3024H42.418V31.5103ZM42.418 12.8024H6.58203V10.3927C6.58288 9.59731 6.89922 8.83474 7.46165 8.27231C8.02407 7.70989 8.78664 7.39355 9.58203 7.3927H13.25V8.8125C13.2504 9.20305 13.4057 9.5775 13.6818 9.85369C13.9579 10.1299 14.3323 10.2853 14.7229 10.2858H16.1694C16.3683 10.2858 16.5591 10.2068 16.6998 10.0661C16.8404 9.92545 16.9194 9.73468 16.9194 9.53577C16.9194 9.33686 16.8404 9.14609 16.6998 9.00544C16.5591 8.86479 16.3683 8.78577 16.1694 8.78577L14.75 8.8125C14.7476 7.70048 14.7274 5.61127 14.7229 4.5L17.5896 4.47327V5.8927H16.7561C16.5597 5.89653 16.3727 5.97724 16.2352 6.11748C16.0976 6.25772 16.0206 6.44631 16.0206 6.64272C16.0206 6.83914 16.0977 7.02772 16.2352 7.16795C16.3727 7.30818 16.5598 7.38888 16.7561 7.3927H29.9536V8.8125C29.954 9.20305 30.1093 9.5775 30.3854 9.85369C30.6616 10.1299 31.036 10.2853 31.4265 10.2858H32.873C33.072 10.2858 33.2627 10.2068 33.4034 10.0661C33.544 9.92545 33.623 9.73468 33.623 9.53577C33.623 9.33686 33.544 9.14609 33.4034 9.00544C33.2627 8.86479 33.072 8.78577 32.873 8.78577L31.4536 8.8125C31.4434 7.69867 31.4366 5.613 31.4265 4.5L34.2925 4.47327V5.8927H33.5C33.3036 5.89643 33.1164 5.97709 32.9788 6.11734C32.8412 6.25759 32.7641 6.44624 32.7641 6.64272C32.7641 6.8392 32.8412 7.02784 32.9788 7.16808C33.1164 7.30833 33.3036 7.38898 33.5 7.3927H39.418C40.2134 7.39355 40.9759 7.70989 41.5383 8.27231C42.1008 8.83474 42.4171 9.59731 42.418 10.3927V12.8024Z" fill="#B99343"/>
<path d="M30.1888 36.5903H18.8113C18.6149 36.5942 18.4279 36.6749 18.2904 36.8151C18.1528 36.9554 18.0758 37.1439 18.0758 37.3404C18.0758 37.5368 18.1529 37.7254 18.2904 37.8656C18.4279 38.0058 18.615 38.0865 18.8114 38.0903H30.1888C30.3852 38.0865 30.5722 38.0058 30.7098 37.8656C30.8473 37.7253 30.9243 37.5368 30.9243 37.3403C30.9243 37.1439 30.8473 36.9553 30.7098 36.8151C30.5722 36.6749 30.3852 36.5942 30.1888 36.5903Z" fill="#B99343"/>
<path d="M20.4095 32.0373C20.8327 32.4567 21.4044 32.6921 22.0003 32.6921C22.5962 32.6921 23.1679 32.4567 23.5911 32.0373L33.5909 22.0379C34.0102 21.6146 34.2455 21.0428 34.2455 20.4469C34.2455 19.851 34.0102 19.2792 33.5909 18.8559C33.1624 18.4466 32.5926 18.2181 32 18.2181C31.4075 18.2181 30.8377 18.4466 30.4092 18.8559L22.0003 27.2644L18.5909 23.8557C18.2723 23.5515 17.8722 23.3464 17.4392 23.2654C17.0062 23.1844 16.559 23.2311 16.1521 23.3996C15.7451 23.5682 15.3959 23.8514 15.147 24.2149C14.8981 24.5783 14.7602 25.0063 14.7501 25.4467C14.7494 25.7422 14.8072 26.035 14.9204 26.3081C15.0335 26.5811 15.1997 26.829 15.4093 27.0374L20.4095 32.0373ZM17.5303 24.9163L21.4701 28.8553C21.5397 28.9249 21.6223 28.9802 21.7133 29.0179C21.8043 29.0556 21.9018 29.075 22.0003 29.075C22.0988 29.075 22.1963 29.0556 22.2873 29.0179C22.3783 28.9802 22.461 28.9249 22.5306 28.8553L31.4698 19.9164C31.6116 19.7813 31.8005 19.707 31.9963 19.7094C32.1921 19.7118 32.3792 19.7906 32.5177 19.9291C32.6562 20.0675 32.735 20.2546 32.7373 20.4504C32.7397 20.6462 32.6654 20.8352 32.5303 20.977L22.5306 30.9767C22.3877 31.1132 22.1978 31.1893 22.0003 31.1893C21.8028 31.1893 21.6128 31.1132 21.47 30.9767L16.4698 25.9765C16.3342 25.8348 16.2595 25.6457 16.2617 25.4496C16.2638 25.2536 16.3427 25.0662 16.4814 24.9275C16.62 24.7889 16.8075 24.7101 17.0036 24.708C17.1996 24.7059 17.3887 24.7807 17.5303 24.9163Z" fill="#B99343"/>
</svg>
