<svg width="49" height="47" viewBox="0 0 49 47" fill="none" xmlns="http://www.w3.org/2000/svg">
<path d="M13.3126 23.3805H9.31726C8.91956 23.3809 8.53826 23.534 8.25704 23.8063C7.97582 24.0785 7.81766 24.4477 7.81726 24.8327V26.392C7.81766 26.777 7.97582 27.1462 8.25704 27.4185C8.53826 27.6907 8.91956 27.8438 9.31726 27.8442H13.3126C13.7103 27.8438 14.0916 27.6907 14.3728 27.4185C14.6541 27.1462 14.8122 26.777 14.8126 26.392V24.8327C14.8122 24.4477 14.6541 24.0785 14.3728 23.8063C14.0916 23.534 13.7103 23.3809 13.3126 23.3805ZM13.3126 26.392H9.31726C9.31836 26.392 9.31405 24.8306 9.31726 24.8327H13.3126V26.392Z" fill="#B99343"/>
<path d="M44 15.3285H41.4409C41.0958 15.352 40.7651 15.4755 40.4891 15.684C40.2131 15.8925 40.0039 16.177 39.8871 16.5026L38.0813 13.2481C37.3671 11.961 36.3215 10.8884 35.0531 10.1414C33.7848 9.39447 32.3397 9.00038 30.8677 9H18.1331C16.661 9.00037 15.2158 9.39445 13.9473 10.1414C12.6788 10.8883 11.6331 11.961 10.9187 13.2481L9.11345 16.5025C8.99643 16.1769 8.78705 15.8924 8.51092 15.6839C8.2348 15.4754 7.9039 15.352 7.5587 15.3286L5 15.3285C4.6023 15.3289 4.221 15.4871 3.93978 15.7683C3.65856 16.0495 3.5004 16.4308 3.5 16.8285V18.4362C3.5004 18.8339 3.65856 19.2152 3.93978 19.4964C4.221 19.7776 4.6023 19.9358 5 19.9362H6.17778C5.7699 20.239 5.43527 20.6295 5.19859 21.079C4.96191 21.5285 4.82923 22.0254 4.81036 22.533L4.8103 32.0479C4.80905 32.5801 4.95033 33.103 5.21946 33.5621C5.48859 34.0213 5.87576 34.4 6.34074 34.659C6.32237 34.7143 6.31079 34.7716 6.30625 34.8296V37.4052C6.30814 37.9541 6.52771 38.4799 6.91677 38.8672C7.30584 39.2545 7.83263 39.4716 8.38159 39.471H12.3008C12.8497 39.4716 13.3765 39.2545 13.7656 38.8672C14.1546 38.4799 14.3742 37.9541 14.3761 37.4052V35.5892C17.5834 35.804 21.1919 35.9777 24.5003 35.9777C27.8091 35.9777 31.4172 35.8041 34.6242 35.5893V37.4052C34.6261 37.9541 34.8456 38.4798 35.2346 38.8671C35.6236 39.2543 36.1503 39.4715 36.6992 39.471H40.6184C41.1673 39.4715 41.694 39.2543 42.083 38.8671C42.472 38.4798 42.6915 37.9541 42.6933 37.4052V34.8296C42.6888 34.7717 42.6773 34.7146 42.6591 34.6595C43.1243 34.4006 43.5117 34.0219 43.781 33.5626C44.0503 33.1033 44.1917 32.5803 44.1904 32.0479V22.533C44.1718 22.0254 44.0392 21.5284 43.8026 21.0789C43.5659 20.6294 43.2312 20.2389 42.8232 19.9362H44C44.3977 19.9358 44.779 19.7776 45.0602 19.4964C45.3414 19.2152 45.4995 18.8339 45.5 18.4362V16.8285C45.4995 16.4308 45.3414 16.0496 45.0602 15.7683C44.7789 15.4871 44.3977 15.329 44 15.3285ZM12.2305 13.9753C12.815 12.9224 13.6706 12.0448 14.7084 11.4338C15.7463 10.8227 16.9287 10.5003 18.1331 10.5H30.8677C32.072 10.5004 33.2544 10.8228 34.2922 11.4339C35.3301 12.0449 36.1856 12.9224 36.7703 13.9753L38.8064 17.6459C34.0606 18.2273 29.2814 18.4928 24.5004 18.4405C19.7194 18.4928 14.9401 18.2273 10.1943 17.6459L12.2305 13.9753ZM5 18.4362V16.8285H7.55871L8.22922 17.9424L7.72119 18.4362L5 18.4362ZM12.8761 37.4052C12.8763 37.4803 12.8614 37.5548 12.8325 37.6241C12.8035 37.6935 12.761 37.7563 12.7074 37.809C12.6538 37.8617 12.5902 37.9032 12.5204 37.931C12.4506 37.9588 12.3759 37.9724 12.3008 37.971H8.38159C8.23033 37.972 8.08482 37.9131 7.97696 37.807C7.86911 37.701 7.80773 37.5564 7.80628 37.4052V35.0607C9.1586 35.1873 10.9059 35.3399 12.8761 35.4845V37.4052ZM40.6184 37.971H36.6992C36.6241 37.9724 36.5495 37.9587 36.4797 37.9309C36.4099 37.9031 36.3464 37.8616 36.2928 37.8089C36.2393 37.7562 36.1968 37.6934 36.1678 37.624C36.1389 37.5547 36.1241 37.4803 36.1243 37.4052V35.4845C38.094 35.3399 39.841 35.1873 41.1934 35.0607V37.4052C41.192 37.5564 41.1307 37.7009 41.0229 37.807C40.9151 37.9131 40.7696 37.972 40.6184 37.971ZM42.6904 32.0479C42.6927 32.4207 42.5551 32.7809 42.3048 33.0573C42.0545 33.3336 41.7096 33.5061 41.3384 33.5406C37.6477 33.8907 30.552 34.4777 24.5004 34.4777C18.4491 34.4777 11.353 33.8907 7.66162 33.5406C7.29048 33.5059 6.9458 33.3334 6.69563 33.0571C6.44546 32.7807 6.30797 32.4206 6.3103 32.0479V22.533C6.31071 22.3325 6.35112 22.1341 6.42917 21.9494C6.50721 21.7647 6.62132 21.5975 6.7648 21.4574C7.28446 20.9416 8.77546 19.5111 9.26628 19.0263C14.3138 19.7172 19.4065 20.0228 24.5004 19.9406C29.5942 20.0228 34.6868 19.7172 39.7342 19.0263C40.2393 19.5052 41.715 20.9598 42.2356 21.4571C42.3792 21.5971 42.4933 21.7645 42.5714 21.9492C42.6495 22.134 42.69 22.3324 42.6904 22.533V32.0479ZM44 18.4362H41.2799L40.7711 17.9417L41.4409 16.8285H44V18.4362Z" fill="#B99343"/>
<path d="M13.8206 29.3702H8.80898C8.6126 29.374 8.42556 29.4521 8.28804 29.5879C8.15051 29.7236 8.07348 29.9062 8.07349 30.0964C8.07349 30.2865 8.15054 30.4691 8.28807 30.6049C8.42561 30.7406 8.61265 30.8188 8.80903 30.8225H13.8206C14.017 30.8188 14.204 30.7406 14.3415 30.6049C14.4791 30.4691 14.5561 30.2865 14.5561 30.0963C14.5561 29.9062 14.4791 29.7236 14.3415 29.5878C14.204 29.4521 14.017 29.3739 13.8206 29.3702Z" fill="#B99343"/>
<path d="M39.6838 23.3805H35.6885C35.2908 23.3809 34.9095 23.5341 34.6283 23.8063C34.3471 24.0786 34.1889 24.4477 34.1885 24.8327V26.392C34.1889 26.777 34.3471 27.1461 34.6283 27.4184C34.9095 27.6906 35.2908 27.8438 35.6885 27.8442H39.6838C40.0815 27.8438 40.4628 27.6906 40.744 27.4184C41.0252 27.1461 41.1834 26.777 41.1838 26.392V24.8327C41.1834 24.4477 41.0252 24.0786 40.744 23.8063C40.4628 23.5341 40.0815 23.3809 39.6838 23.3805ZM39.6838 26.392H35.6885V24.8327H39.6838L39.6838 26.392Z" fill="#B99343"/>
<path d="M40.1914 29.3702H35.1802C34.9838 29.374 34.7968 29.4521 34.6593 29.5879C34.5217 29.7236 34.4447 29.9062 34.4447 30.0964C34.4447 30.2865 34.5218 30.4691 34.6593 30.6049C34.7968 30.7406 34.9839 30.8188 35.1802 30.8225H40.1914C40.3878 30.8188 40.5749 30.7406 40.7124 30.6049C40.8499 30.4691 40.927 30.2865 40.927 30.0963C40.927 29.9062 40.8499 29.7236 40.7124 29.5878C40.5749 29.4521 40.3878 29.3739 40.1914 29.3702Z" fill="#B99343"/>
<path d="M31.9641 26.5696C31.8504 26.09 31.5716 25.6622 31.1735 25.3563C30.7754 25.0504 30.2817 24.8846 29.7735 24.8862H19.2273C18.719 24.8847 18.2253 25.0504 17.8272 25.3563C17.429 25.6622 17.1501 26.09 17.0363 26.5696L16.458 28.9685C16.3835 29.2878 16.3838 29.6193 16.459 29.9385C16.5342 30.2577 16.6823 30.5566 16.8925 30.8131C17.1027 31.0696 17.3696 31.2772 17.6736 31.4206C17.9776 31.5641 18.3109 31.6398 18.6491 31.6421H24.5004H30.3521C30.6902 31.6397 31.0235 31.5639 31.3274 31.4204C31.6313 31.2769 31.8982 31.0693 32.1083 30.8128C32.3185 30.5564 32.4666 30.2575 32.5417 29.9384C32.6169 29.6192 32.6172 29.2877 32.5427 28.9684L31.9641 26.5696ZM30.9395 29.9151C30.8695 30.001 30.7802 30.0704 30.6785 30.118C30.5767 30.1656 30.4651 30.1902 30.3521 30.1899H18.6491C18.5363 30.1891 18.4252 30.1639 18.3238 30.116C18.2225 30.0682 18.1335 29.999 18.0634 29.9135C17.9934 29.828 17.944 29.7284 17.9189 29.622C17.8938 29.5155 17.8937 29.405 17.9185 29.2986L18.4967 26.8997C18.5347 26.7398 18.6277 26.5972 18.7605 26.4952C18.8932 26.3932 19.0579 26.3379 19.2273 26.3384C21.8561 26.3393 27.1454 26.3378 29.7735 26.3384C29.9429 26.338 30.1074 26.3933 30.2401 26.4953C30.3728 26.5973 30.4657 26.7399 30.5037 26.8997L31.0823 29.2989C31.1081 29.4054 31.1087 29.5162 31.084 29.6229C31.0592 29.7296 31.0098 29.8295 30.9395 29.9151Z" fill="#B99343"/>
</svg>
