<svg width="49" height="48" viewBox="0 0 49 48" fill="none" xmlns="http://www.w3.org/2000/svg">
<path d="M5.75 15C6.16421 15 6.5 14.6642 6.5 14.25C6.5 13.8358 6.16421 13.5 5.75 13.5C5.33579 13.5 5 13.8358 5 14.25C5 14.6642 5.33579 15 5.75 15Z" fill="#B99343"/>
<path d="M8.75 15C9.16421 15 9.5 14.6642 9.5 14.25C9.5 13.8358 9.16421 13.5 8.75 13.5C8.33579 13.5 8 13.8358 8 14.25C8 14.6642 8.33579 15 8.75 15Z" fill="#B99343"/>
<path d="M11.75 15C12.1642 15 12.5 14.6642 12.5 14.25C12.5 13.8358 12.1642 13.5 11.75 13.5C11.3358 13.5 11 13.8358 11 14.25C11 14.6642 11.3358 15 11.75 15Z" fill="#B99343"/>
<path d="M40.25 15H43.25C43.664 15 44 14.664 44 14.25C44 13.836 43.664 13.5 43.25 13.5H40.25C39.836 13.5 39.5 13.836 39.5 14.25C39.5 14.664 39.836 15 40.25 15Z" fill="#B99343"/>
<path d="M2.75 31.5C3.164 31.5 3.5 31.164 3.5 30.75V18H13.25C13.664 18 14 17.664 14 17.25C14 16.836 13.664 16.5 13.25 16.5H3.5V12H13.25C13.664 12 14 11.664 14 11.25C14 10.836 13.664 10.5 13.25 10.5H2.75C2.336 10.5 2 10.836 2 11.25V30.75C2 31.164 2.336 31.5 2.75 31.5Z" fill="#B99343"/>
<path d="M46.25 10.5H40.25C39.836 10.5 39.5 10.836 39.5 11.25C39.5 11.664 39.836 12 40.25 12H45.5V16.5H40.25C39.836 16.5 39.5 16.836 39.5 17.25C39.5 17.664 39.836 18 40.25 18H45.5V45H17.75C17.336 45 17 45.336 17 45.75C17 46.164 17.336 46.5 17.75 46.5H46.25C46.664 46.5 47 46.164 47 45.75V11.25C47 10.836 46.664 10.5 46.25 10.5Z" fill="#B99343"/>
<path d="M18.5 14.25C18.5 14.664 18.836 15 19.25 15H22.25C22.664 15 23 14.664 23 14.25V11.25C23 10.836 22.664 10.5 22.25 10.5H19.25C18.836 10.5 18.5 10.836 18.5 11.25V14.25ZM20 12H21.5V13.5H20V12Z" fill="#B99343"/>
<path d="M24.5 14.25C24.5 14.664 24.836 15 25.25 15H28.25C28.664 15 29 14.664 29 14.25V11.25C29 10.836 28.664 10.5 28.25 10.5H25.25C24.836 10.5 24.5 10.836 24.5 11.25V14.25ZM26 12H27.5V13.5H26V12Z" fill="#B99343"/>
<path d="M30.5 14.25C30.5 14.664 30.836 15 31.25 15H34.25C34.664 15 35 14.664 35 14.25V11.25C35 10.836 34.664 10.5 34.25 10.5H31.25C30.836 10.5 30.5 10.836 30.5 11.25V14.25ZM32 12H33.5V13.5H32V12Z" fill="#B99343"/>
<path d="M19.25 9H22.25C22.664 9 23 8.664 23 8.25V5.25C23 4.836 22.664 4.5 22.25 4.5H19.25C18.836 4.5 18.5 4.836 18.5 5.25V8.25C18.5 8.664 18.836 9 19.25 9ZM20 6H21.5V7.5H20V6Z" fill="#B99343"/>
<path d="M25.25 9H28.25C28.664 9 29 8.664 29 8.25V5.25C29 4.836 28.664 4.5 28.25 4.5H25.25C24.836 4.5 24.5 4.836 24.5 5.25V8.25C24.5 8.664 24.836 9 25.25 9ZM26 6H27.5V7.5H26V6Z" fill="#B99343"/>
<path d="M31.25 9H34.25C34.664 9 35 8.664 35 8.25V5.25C35 4.836 34.664 4.5 34.25 4.5H31.25C30.836 4.5 30.5 4.836 30.5 5.25V8.25C30.5 8.664 30.836 9 31.25 9ZM32 6H33.5V7.5H32V6Z" fill="#B99343"/>
<path d="M18.5 26.25C18.5 26.664 18.836 27 19.25 27H22.25C22.664 27 23 26.664 23 26.25V23.25C23 22.836 22.664 22.5 22.25 22.5H19.25C18.836 22.5 18.5 22.836 18.5 23.25V26.25ZM20 24H21.5V25.5H20V24Z" fill="#B99343"/>
<path d="M24.5 26.25C24.5 26.664 24.836 27 25.25 27H28.25C28.664 27 29 26.664 29 26.25V23.25C29 22.836 28.664 22.5 28.25 22.5H25.25C24.836 22.5 24.5 22.836 24.5 23.25V26.25ZM26 24H27.5V25.5H26V24Z" fill="#B99343"/>
<path d="M30.5 26.25C30.5 26.664 30.836 27 31.25 27H34.25C34.664 27 35 26.664 35 26.25V23.25C35 22.836 34.664 22.5 34.25 22.5H31.25C30.836 22.5 30.5 22.836 30.5 23.25V26.25ZM32 24H33.5V25.5H32V24Z" fill="#B99343"/>
<path d="M18.5 20.25C18.5 20.664 18.836 21 19.25 21H22.25C22.664 21 23 20.664 23 20.25V17.25C23 16.836 22.664 16.5 22.25 16.5H19.25C18.836 16.5 18.5 16.836 18.5 17.25V20.25ZM20 18H21.5V19.5H20V18Z" fill="#B99343"/>
<path d="M24.5 20.25C24.5 20.664 24.836 21 25.25 21H28.25C28.664 21 29 20.664 29 20.25V17.25C29 16.836 28.664 16.5 28.25 16.5H25.25C24.836 16.5 24.5 16.836 24.5 17.25V20.25ZM26 18H27.5V19.5H26V18Z" fill="#B99343"/>
<path d="M30.5 20.25C30.5 20.664 30.836 21 31.25 21H34.25C34.664 21 35 20.664 35 20.25V17.25C35 16.836 34.664 16.5 34.25 16.5H31.25C30.836 16.5 30.5 16.836 30.5 17.25V20.25ZM32 18H33.5V19.5H32V18Z" fill="#B99343"/>
<path d="M21.5 41.25C21.5 41.664 21.836 42 22.25 42H42.5C42.914 42 43.25 41.664 43.25 41.25C43.25 40.836 42.914 40.5 42.5 40.5H22.25C21.836 40.5 21.5 40.836 21.5 41.25Z" fill="#B99343"/>
<path d="M16.25 30.39C16.664 30.39 17 30.054 17 29.64V3H36.5V34.5H31.25V29.25C31.25 28.836 30.914 28.5 30.5 28.5H23C22.586 28.5 22.25 28.836 22.25 29.25V34.5H20.3098C19.8958 34.5 19.5598 34.836 19.5598 35.25C19.5598 35.664 19.8958 36 20.3098 36H38.75C39.1632 36 39.5 36.3368 39.5 36.75V37.5H20.75C20.336 37.5 20 37.836 20 38.25C20 38.664 20.336 39 20.75 39H40.25C40.664 39 41 38.664 41 38.25V36.75C41 35.5095 39.9905 34.5 38.75 34.5H38V2.25C38 1.836 37.664 1.5 37.25 1.5H16.25C15.836 1.5 15.5 1.836 15.5 2.25V29.64C15.5 30.054 15.836 30.39 16.25 30.39ZM23.75 30H26V34.5H23.75V30ZM27.5 34.5V30H29.75V34.5H27.5Z" fill="#B99343"/>
<path d="M10.25 30C5.70125 30 2 33.7013 2 38.25C2 42.7987 5.70125 46.5 10.25 46.5C14.7987 46.5 18.5 42.7987 18.5 38.25C18.5 33.7013 14.7987 30 10.25 30ZM10.25 45C6.5285 45 3.5 41.9715 3.5 38.25C3.5 34.5285 6.5285 31.5 10.25 31.5C13.9715 31.5 17 34.5285 17 38.25C17 41.9715 13.9715 45 10.25 45Z" fill="#B99343"/>
<path d="M13.5118 35.4307L8.789 39.4784L7.03025 37.7197C6.737 37.4264 6.263 37.4264 5.96975 37.7197C5.6765 38.0129 5.6765 38.4869 5.96975 38.7802L8.21975 41.0302C8.36525 41.1757 8.558 41.2499 8.75 41.2499C8.92325 41.2499 9.09725 41.1899 9.23825 41.0692L14.4883 36.5692C14.8025 36.2999 14.8393 35.8259 14.5693 35.5117C14.3 35.1974 13.8253 35.1607 13.5118 35.4307Z" fill="#B99343"/>
</svg>
