<svg width="53" height="56" viewBox="0 0 53 56" fill="none" xmlns="http://www.w3.org/2000/svg">
<g filter="url(#filter0_dd_85_424)">
<g filter="url(#filter1_d_85_424)">
<rect width="43" height="43" rx="21.5" transform="matrix(-1 0 0 1 48.4546 4)" fill="white" fill-opacity="0.02" shape-rendering="crispEdges"/>
<rect width="43" height="43" rx="21.5" transform="matrix(-1 0 0 1 48.4546 4)" stroke="white" stroke-opacity="0.5" shape-rendering="crispEdges"/>
</g>
</g>
<path d="M27.5286 20.0938L26.8411 19.4062C26.5286 19.125 26.0599 19.125 25.7786 19.4062L19.6849 25.4688C19.4036 25.7812 19.4036 26.25 19.6849 26.5312L25.7786 32.625C26.0599 32.9062 26.5286 32.9062 26.8411 32.625L27.5286 31.9375C27.8099 31.625 27.8099 31.1562 27.5286 30.8438L23.7474 27.25H32.7161C33.1536 27.25 33.4661 26.9375 33.4661 26.5V25.5C33.4661 25.0938 33.1536 24.75 32.7161 24.75H23.7474L27.5286 21.1875C27.8099 20.875 27.8411 20.4062 27.5286 20.0938Z" fill="white" fill-opacity="0.8"/>
<defs>
<filter id="filter0_dd_85_424" x="0.95459" y="0.5" width="52" height="52.5" filterUnits="userSpaceOnUse" color-interpolation-filters="sRGB">
<feFlood flood-opacity="0" result="BackgroundImageFix"/>
<feColorMatrix in="SourceAlpha" type="matrix" values="0 0 0 0 0 0 0 0 0 0 0 0 0 0 0 0 0 0 127 0" result="hardAlpha"/>
<feMorphology radius="1" operator="dilate" in="SourceAlpha" result="effect1_dropShadow_85_424"/>
<feOffset dy="1"/>
<feGaussianBlur stdDeviation="1.5"/>
<feColorMatrix type="matrix" values="0 0 0 0 0 0 0 0 0 0 0 0 0 0 0 0 0 0 0.15 0"/>
<feBlend mode="normal" in2="BackgroundImageFix" result="effect1_dropShadow_85_424"/>
<feColorMatrix in="SourceAlpha" type="matrix" values="0 0 0 0 0 0 0 0 0 0 0 0 0 0 0 0 0 0 127 0" result="hardAlpha"/>
<feOffset dy="1"/>
<feGaussianBlur stdDeviation="1"/>
<feColorMatrix type="matrix" values="0 0 0 0 0 0 0 0 0 0 0 0 0 0 0 0 0 0 0.3 0"/>
<feBlend mode="normal" in2="effect1_dropShadow_85_424" result="effect2_dropShadow_85_424"/>
<feBlend mode="normal" in="SourceGraphic" in2="effect2_dropShadow_85_424" result="shape"/>
</filter>
<filter id="filter1_d_85_424" x="0.95459" y="3.5" width="52" height="52" filterUnits="userSpaceOnUse" color-interpolation-filters="sRGB">
<feFlood flood-opacity="0" result="BackgroundImageFix"/>
<feColorMatrix in="SourceAlpha" type="matrix" values="0 0 0 0 0 0 0 0 0 0 0 0 0 0 0 0 0 0 127 0" result="hardAlpha"/>
<feOffset dy="4"/>
<feGaussianBlur stdDeviation="2"/>
<feComposite in2="hardAlpha" operator="out"/>
<feColorMatrix type="matrix" values="0 0 0 0 0 0 0 0 0 0 0 0 0 0 0 0 0 0 0.25 0"/>
<feBlend mode="normal" in2="BackgroundImageFix" result="effect1_dropShadow_85_424"/>
<feBlend mode="normal" in="SourceGraphic" in2="effect1_dropShadow_85_424" result="shape"/>
</filter>
</defs>
</svg>
