<svg width="49" height="48" viewBox="0 0 49 48" fill="none" xmlns="http://www.w3.org/2000/svg">
<path d="M30.5399 29.7414C30.3636 29.401 30.0937 29.1181 29.762 28.9259C29.4302 28.7337 29.0505 28.6403 28.6675 28.6567C28.0057 28.518 27.3219 28.523 26.6622 28.6712C26.0025 28.8194 25.3823 29.1074 24.8435 29.5159L23.4007 30.4371L17.5515 27.2527C17.4337 27.1877 17.3005 27.156 17.1661 27.1607C17.0317 27.1655 16.9012 27.2067 16.7883 27.2798L15.8185 27.9016C15.7217 27.9649 15.6406 28.0496 15.5817 28.1492C15.5228 28.2488 15.4876 28.3606 15.4787 28.476C15.4699 28.5914 15.4877 28.7072 15.5307 28.8147C15.5738 28.9221 15.641 29.0181 15.727 29.0955L19.8308 32.7166L16.8257 34.6355L13.0163 31.9885C12.4342 31.5442 11.6945 32.3468 11.2032 32.592C11.1164 32.6468 11.0419 32.7188 10.984 32.8036C10.9262 32.8884 10.8864 32.9841 10.867 33.0849C10.8477 33.1857 10.8492 33.2893 10.8715 33.3895C10.8938 33.4897 10.9364 33.5842 10.9967 33.6672L13.829 37.5645C13.6704 37.8704 13.594 38.2123 13.6072 38.5567C13.6205 38.9011 13.723 39.2361 13.9047 39.5289C14.0864 39.8218 14.341 40.0624 14.6437 40.2272C14.9463 40.3921 15.2866 40.4754 15.6312 40.4692C16.3698 40.5443 17.2517 39.8269 17.7962 39.5112C19.1519 38.7331 19.8206 38.2707 22.2461 37.0009L23.7416 41.6734C23.7775 41.7822 23.8377 41.8814 23.9176 41.9635C23.9976 42.0455 24.0952 42.1083 24.203 42.1471C24.3108 42.1858 24.426 42.1995 24.5399 42.1871C24.6538 42.1747 24.7634 42.1365 24.8604 42.0755L25.8301 41.4537C25.9466 41.379 26.0401 41.2737 26.1004 41.1492C26.1607 41.0247 26.1854 40.886 26.1718 40.7483L25.6289 35.2859C27.5942 34.1547 27.9804 34.7213 30.2163 32.0942C30.4868 31.7725 30.6608 31.3809 30.7181 30.9646C30.7754 30.5482 30.7136 30.1242 30.5399 29.7414ZM18.3074 29.3716L21.9575 31.3587L21.1462 31.8767L18.3074 29.3716ZM23.1974 35.0588L24.0466 34.5154L24.5058 39.145L23.1974 35.0588ZM29.0308 31.1741C28.5203 31.9206 27.8328 32.5291 27.0298 32.9451C26.4813 33.1923 25.9603 33.4592 25.4705 33.6929L25.4166 33.1509C25.4023 33.0241 25.3561 32.903 25.2824 32.7989C25.2087 32.6948 25.1098 32.611 24.9949 32.5554C24.8801 32.4999 24.753 32.4743 24.6256 32.4811C24.4982 32.4879 24.3746 32.5268 24.2663 32.5943L21.9046 34.1045C21.3504 34.4496 21.6161 35.0694 21.7823 35.5519L21.478 35.7092C19.0375 36.9977 18.4259 37.4096 17.1215 38.1724C16.8876 38.2834 16.1157 38.8074 16.0599 38.833C15.5269 39.186 14.8732 38.7903 15.1696 38.2317C15.3066 38.0142 15.375 37.7605 15.3661 37.5037C15.3572 37.2468 15.2714 36.9985 15.1198 36.791L12.8991 33.7339L16.3799 36.1523C16.5018 36.2362 16.6456 36.2825 16.7935 36.2854C16.9415 36.2882 17.087 36.2476 17.212 36.1685C18.5327 35.3246 24.4968 31.515 25.6898 30.7529C26.0626 30.457 26.4965 30.2474 26.9601 30.1393C27.4237 30.0311 27.9055 30.0271 28.3708 30.1274C28.6473 30.1924 29.081 30.1136 29.1973 30.4102C29.2421 30.5406 29.2503 30.6807 29.2209 30.8154C29.1916 30.9501 29.1258 31.0742 29.0308 31.1741Z" fill="#B99343"/>
<path d="M43.7579 26.2009C43.7899 25.3538 43.4852 24.5284 42.9105 23.9052C42.3358 23.282 41.5378 22.9116 40.6909 22.875H38.3756L42.4073 17.666C42.8944 16.9727 43.0886 16.1153 42.9477 15.2797C42.8069 14.4442 42.3423 13.6979 41.6548 13.2026L37.0787 9.66389C37.0006 9.60304 36.9113 9.55823 36.8159 9.53202C36.7204 9.50582 36.6207 9.49875 36.5225 9.51122C36.4244 9.52368 36.3296 9.55544 36.2438 9.60466C36.1579 9.65388 36.0826 9.7196 36.0222 9.79802L34.9696 11.1584C34.149 12.1853 32.2963 10.7371 33.0774 9.69499L34.1324 8.33126C34.2542 8.17386 34.3084 7.97456 34.2832 7.77718C34.258 7.5798 34.1554 7.40052 33.998 7.27877C33.9735 7.26888 29.4404 3.75483 29.4182 3.73673C28.7661 3.19705 27.9281 2.93522 27.0848 3.00771C26.2416 3.0802 25.4605 3.48119 24.9102 4.12422L10.3911 22.875H8.30905C7.46211 22.9116 6.6641 23.282 6.08941 23.9052C5.51472 24.5284 5.21007 25.3538 5.24203 26.2009V31.9899C5.24201 32.0884 5.26139 32.186 5.29907 32.277C5.33675 32.368 5.392 32.4507 5.46165 32.5203C5.5313 32.59 5.61398 32.6452 5.70499 32.6829C5.796 32.7206 5.89353 32.74 5.99203 32.7399H7.71689C9.02095 32.7606 9.03457 35.0997 7.71689 35.1342H5.99203C5.89353 35.1342 5.796 35.1536 5.70499 35.1913C5.61398 35.229 5.5313 35.2842 5.46165 35.3538C5.392 35.4235 5.33675 35.5062 5.29907 35.5972C5.26139 35.6882 5.24201 35.7857 5.24203 35.8842V41.6733C5.21004 42.5205 5.51466 43.3459 6.08934 43.9693C6.66402 44.5926 7.46204 44.9631 8.30905 45H40.6909C41.5379 44.9631 42.3359 44.5926 42.9106 43.9693C43.4853 43.3459 43.7899 42.5205 43.7579 41.6733V35.8842C43.758 35.7857 43.7387 35.6881 43.7011 35.597C43.6634 35.5059 43.6082 35.4231 43.5386 35.3534C43.4689 35.2836 43.3862 35.2283 43.2951 35.1906C43.2041 35.1529 43.1065 35.1335 43.0079 35.1335H41.2845C39.9682 35.1031 39.9818 32.7661 41.2846 32.7407H43.0079C43.1064 32.7407 43.2039 32.7213 43.295 32.6836C43.386 32.6459 43.4686 32.5907 43.5383 32.521C43.6079 32.4514 43.6632 32.3687 43.7009 32.2777C43.7386 32.1867 43.7579 32.0891 43.7579 31.9907V26.2009ZM26.0945 5.04488C26.4009 4.71494 26.824 4.51767 27.2737 4.4951C27.7234 4.47253 28.1641 4.62643 28.502 4.92403L32.4845 8.00953L31.8912 8.77661C31.4924 9.338 31.3322 10.0344 31.4454 10.7137C31.5586 11.3929 31.9361 11.9997 32.4955 12.4014C33.0251 12.841 33.707 13.0536 34.3926 12.9928C35.0782 12.932 35.7121 12.6028 36.1561 12.0769L36.7517 11.3072L40.7345 14.3869C41.1082 14.6388 41.3684 15.027 41.4593 15.4684C41.5502 15.9098 41.4646 16.3692 41.2208 16.7482L37.2084 21.933L22.0816 10.2273L26.0945 5.04488ZM21.1632 11.4133L35.9747 22.875H25.0037L28.0252 18.873C28.1403 18.714 28.1885 18.5162 28.1595 18.322C28.1304 18.1279 28.0264 17.9528 27.8697 17.8345C27.713 17.7162 27.5162 17.6641 27.3215 17.6893C27.1268 17.7144 26.9498 17.815 26.8284 17.9693L23.1245 22.875H21.1851L25.5836 17.0332C25.6986 16.874 25.7467 16.676 25.7174 16.4818C25.6881 16.2876 25.5838 16.1126 25.4269 15.9945C25.27 15.8763 25.073 15.8244 24.8782 15.8499C24.6835 15.8754 24.5065 15.9763 24.3853 16.1309L19.3074 22.875H12.2881L21.1632 11.4133ZM6.74203 41.6733V36.6342H7.71689C11.0273 36.5345 10.9924 31.3251 7.71682 31.2399H6.74203V26.2009C6.71645 25.753 6.86538 25.3126 7.15756 24.9721C7.44974 24.6317 7.86245 24.4176 8.30905 24.375H10.7433C10.7515 24.3559 19.6505 24.3887 19.6654 24.3749C22.2144 24.3739 29.9743 24.3757 32.6339 24.375V43.5H8.30905C7.86234 43.4572 7.44955 43.2431 7.15736 42.9025C6.86518 42.5619 6.71632 42.1213 6.74203 41.6733ZM38.7877 33.9375C38.7631 34.6256 39.0119 35.2955 39.4798 35.8007C39.9477 36.3059 40.5965 36.6053 41.2845 36.6335H42.2579V41.6733C42.2836 42.1213 42.1348 42.5619 41.8426 42.9025C41.5504 43.2431 41.1376 43.4572 40.6909 43.5H34.1339V24.375C35.6986 24.3669 39.1015 24.3808 40.6909 24.375C41.1375 24.4176 41.5502 24.6317 41.8424 24.9721C42.1346 25.3126 42.2835 25.753 42.2579 26.2009V31.2407H41.2845C40.5964 31.269 39.9476 31.5686 39.4797 32.0739C39.0119 32.5793 38.7631 33.2492 38.7877 33.9375Z" fill="#B99343"/>
<path d="M19.7217 21.2358L22.4946 17.5584C22.6137 17.4012 22.7004 17.2221 22.7498 17.0312C22.7992 16.8404 22.8103 16.6417 22.7825 16.4465C22.7407 15.7261 21.9458 15.2729 21.4392 14.8835C21.1209 14.6459 20.7217 14.5434 20.3284 14.5984C19.935 14.6534 19.5792 14.8614 19.3383 15.1772L16.565 18.8555C16.3262 19.1735 16.2232 19.5732 16.2785 19.9671C16.3339 20.3609 16.543 20.7168 16.8601 20.9568L17.6208 21.5295C17.9389 21.7675 18.3382 21.8702 18.7317 21.8152C19.1252 21.7602 19.481 21.552 19.7217 21.2358ZM17.7628 19.7585L20.5358 16.0811L21.2975 16.6545L18.5238 20.332L17.7628 19.7585Z" fill="#B99343"/>
</svg>
