<svg width="49" height="48" viewBox="0 0 49 48" fill="none" xmlns="http://www.w3.org/2000/svg">
<path d="M40.1 45.3L35.525 38.7C36.2 38.4 36.875 37.95 37.25 37.275L38.825 34.875C39.2 34.275 39.425 33.525 39.425 32.775V8.55C39.425 7.2 39.05 5.925 38.3 4.8L38.15 4.5C36.875 2.625 34.775 1.5 32.525 1.5H16.475C14.225 1.5 12.125 2.625 10.85 4.5L10.625 4.8C9.87495 5.925 9.49995 7.2 9.49995 8.55V24H11V8.55C11 7.5 11.3 6.525 11.9 5.625L12.125 5.325C13.1 3.825 14.75 3 16.475 3H32.525C34.25 3 35.9 3.9 36.875 5.325L37.1 5.625C37.7 6.525 38 7.5 38 8.55V32.85C38 33.3 37.85 33.75 37.625 34.125L36.05 36.525C35.6 37.125 34.925 37.5 34.175 37.5H33.5V35.25C33.5 33.975 32.525 33 31.25 33H17.75C16.475 33 15.5 33.975 15.5 35.25V37.5H14.825C14.075 37.5 13.4 37.125 12.95 36.525L11.375 34.125C11.15 33.75 11 33.3 11 32.85V25.5H9.49995V32.85C9.49995 33.6 9.72495 34.275 10.1 34.95L11.675 37.35C12.125 38.025 12.8 38.55 13.475 38.775L9.49995 45.375C9.34995 45.6 9.34995 45.9 9.49995 46.125C9.64995 46.35 9.87495 46.5 10.175 46.5H13.175C13.475 46.5 13.7 46.35 13.85 46.125L14.525 45H35L35.825 46.2C35.975 46.425 36.2 46.5 36.425 46.5H39.425C39.725 46.5 39.95 46.35 40.1 46.125C40.325 45.825 40.25 45.525 40.1 45.3ZM17 35.25C17 34.8 17.3 34.5 17.75 34.5H31.25C31.7 34.5 32 34.8 32 35.25V37.5H31.25H17.75H17V35.25ZM30.875 39L31.925 40.5H17.3L18.2 39H30.875ZM12.8 45H11.525L15.125 39H16.25H16.4L12.8 45ZM15.5 43.5L16.4 42H32.975L34.025 43.5H15.5ZM36.875 45L32.675 39H32.75H33.875L38.075 45H36.875Z" fill="#B99343"/>
<path d="M30.5 29.25C30.5 30.9 31.85 32.25 33.5 32.25C35.15 32.25 36.5 30.9 36.5 29.25C36.5 27.6 35.15 26.25 33.5 26.25C31.85 26.25 30.5 27.6 30.5 29.25ZM35 29.25C35 30.075 34.325 30.75 33.5 30.75C32.675 30.75 32 30.075 32 29.25C32 28.425 32.675 27.75 33.5 27.75C34.325 27.75 35 28.425 35 29.25Z" fill="#B99343"/>
<path d="M15.5 26.25C13.85 26.25 12.5 27.6 12.5 29.25C12.5 30.9 13.85 32.25 15.5 32.25C17.15 32.25 18.5 30.9 18.5 29.25C18.5 27.6 17.15 26.25 15.5 26.25ZM15.5 30.75C14.675 30.75 14 30.075 14 29.25C14 28.425 14.675 27.75 15.5 27.75C16.325 27.75 17 28.425 17 29.25C17 30.075 16.325 30.75 15.5 30.75Z" fill="#B99343"/>
<path d="M29 9C29.45 9 29.75 8.7 29.75 8.25V5.25C29.75 4.8 29.45 4.5 29 4.5H20C19.55 4.5 19.25 4.8 19.25 5.25V8.25C19.25 8.7 19.55 9 20 9H29ZM20.75 6H28.25V7.5H20.75V6Z" fill="#B99343"/>
<path d="M35.75 6.75C35.75 5.475 34.775 4.5 33.5 4.5C32.225 4.5 31.25 5.475 31.25 6.75C31.25 8.025 32.225 9 33.5 9C34.775 9 35.75 8.025 35.75 6.75ZM32.75 6.75C32.75 6.3 33.05 6 33.5 6C33.95 6 34.25 6.3 34.25 6.75C34.25 7.2 33.95 7.5 33.5 7.5C33.05 7.5 32.75 7.2 32.75 6.75Z" fill="#B99343"/>
<path d="M17.75 6.75C17.75 5.475 16.775 4.5 15.5 4.5C14.225 4.5 13.25 5.475 13.25 6.75C13.25 8.025 14.225 9 15.5 9C16.775 9 17.75 8.025 17.75 6.75ZM14.75 6.75C14.75 6.3 15.05 6 15.5 6C15.95 6 16.25 6.3 16.25 6.75C16.25 7.2 15.95 7.5 15.5 7.5C15.05 7.5 14.75 7.2 14.75 6.75Z" fill="#B99343"/>
<path d="M12.7249 12C11.9749 12.975 11.7499 14.1 12.1249 15.3L14.2249 22.8C14.6749 24.45 16.1749 25.575 17.8249 25.575H31.2499C32.8999 25.575 34.3999 24.45 34.8499 22.8L36.9499 15.3C37.2499 14.175 37.0249 12.975 36.3499 12C35.5999 11.025 34.5499 10.5 33.3499 10.5H29.7499V12H33.2749C33.9499 12 34.6249 12.3 35.0749 12.9C35.5249 13.5 35.6749 14.175 35.4499 14.85L33.3499 22.35C33.1249 23.325 32.2249 24 31.2499 24H17.7499C16.7749 24 15.8749 23.325 15.5749 22.35L13.4749 14.85C13.2499 14.175 13.3999 13.425 13.8499 12.9C14.2999 12.375 14.8999 12 15.6499 12H28.2499V10.5H15.7249C14.5249 10.5 13.3999 11.025 12.7249 12Z" fill="#B99343"/>
<path d="M29 27H20V28.5H29V27Z" fill="#B99343"/>
<path d="M29 30H20V31.5H29V30Z" fill="#B99343"/>
</svg>
